<svg xmlns="http://www.w3.org/2000/svg" version="1.1" xmlns:xlink="http://www.w3.org/1999/xlink" xmlns:svgjs="http://svgjs.com/svgjs" width="512" height="512" x="0" y="0" viewBox="0 0 512 512" style="enable-background:new 0 0 512 512" xml:space="preserve" class=""><g><path d="m55.5 416.5v-80h70v110h-40a30 30 0 0 1 -30-30z" fill="#aa6f3d" data-original="#aa6f3d"></path><path d="m105.5 446.5h-20a30 30 0 0 1 -30-30v-80h20v80a30 30 0 0 0 30 30z" fill="#9e653b" data-original="#9e653b"></path><path d="m115.5 346.5h-60a10 10 0 0 1 -10-10v-20a20 20 0 0 1 20-20h50z" fill="#c1773d" data-original="#c1773d" class=""></path><path d="m75.5 346.5h-20a10 10 0 0 1 -10-10v-20a19.994 19.994 0 0 1 20-20v40a10 10 0 0 0 10 10z" fill="#aa6f3d" data-original="#aa6f3d"></path><path d="m456.5 416.5v-80h-70v110h40a30 30 0 0 0 30-30z" fill="#aa6f3d" data-original="#aa6f3d"></path><path d="m396.5 346.5h60a10 10 0 0 0 10-10v-20a20 20 0 0 0 -20-20h-50z" fill="#c1773d" data-original="#c1773d" class=""></path><path d="m381 486.5h-250a40 40 0 0 1 -40-40v-370h330v370a40 40 0 0 1 -40 40z" fill="#f19b40" data-original="#f19b40"></path><path d="m421 196.49v15a49.9 49.9 0 0 1 -40 20.01h-250a49.9 49.9 0 0 1 -40-20.01v-15a49.9 49.9 0 0 0 40 20.01h250a49.9 49.9 0 0 0 40-20.01z" fill="#d88646" data-original="#d88646" class=""></path><path d="m371 446.5h-90a10 10 0 0 1 -10-10v-100h110v100a10 10 0 0 1 -10 10z" fill="#ffb155" data-original="#ffb155" class=""></path><path d="m381 361.5v15l-37.91 13.79a50.06 50.06 0 0 1 -34.18 0l-37.91-13.79v-15l37.91 13.79a50.06 50.06 0 0 0 34.18 0z" fill="#f19b40" data-original="#f19b40"></path><path d="m381 366.5-37.913 13.786a50 50 0 0 1 -34.174 0l-37.913-13.786v-30a10 10 0 0 1 10-10h90a10 10 0 0 1 10 10z" fill="#ffc980" data-original="#ffc980" class=""></path><circle cx="326" cy="362.797" fill="#ffb155" r="7.5" data-original="#ffb155" class=""></circle><path d="m231 446.5h-90a10 10 0 0 1 -10-10v-100h110v100a10 10 0 0 1 -10 10z" fill="#ffb155" data-original="#ffb155" class=""></path><path d="m241 361.5v15l-37.91 13.79a50.06 50.06 0 0 1 -34.18 0l-37.91-13.79v-15l37.91 13.79a50.06 50.06 0 0 0 34.18 0z" fill="#f19b40" data-original="#f19b40"></path><path d="m241 366.5-37.913 13.786a50 50 0 0 1 -34.174 0l-37.913-13.786v-30a10 10 0 0 1 10-10h90a10 10 0 0 1 10 10z" fill="#ffc980" data-original="#ffc980" class=""></path><circle cx="186" cy="362.797" fill="#ffb155" r="7.5" data-original="#ffb155" class=""></circle><path d="m412.22 471.5a39.9 39.9 0 0 1 -31.22 15h-250a40 40 0 0 1 -40-40v-370h20v365a30 30 0 0 0 30 30z" fill="#d88646" data-original="#d88646" class=""></path><path d="m301 103a7.5 7.5 0 0 1 -7.5-7.5v-25a37.5 37.5 0 0 0 -75 0v25a7.5 7.5 0 0 1 -15 0v-25a52.5 52.5 0 0 1 105 0v25a7.5 7.5 0 0 1 -7.5 7.5z" fill="#d88646" data-original="#d88646" class=""></path><path d="m381 216.5h-250a50 50 0 0 1 -50-50v-90a10 10 0 0 1 10-10h330a10 10 0 0 1 10 10v90a50 50 0 0 1 -50 50z" fill="#ffb155" data-original="#ffb155" class=""></path><path d="m151 216.5h-20a50.005 50.005 0 0 1 -50-50v-90a10 10 0 0 1 10-10h10v100a50.005 50.005 0 0 0 50 50z" fill="#f19b40" data-original="#f19b40"></path><path d="m346 286.5a20 20 0 0 1 -20-20v-200a10 10 0 0 1 10-10h20a10 10 0 0 1 10 10v200a20 20 0 0 1 -20 20z" fill="#c1773d" data-original="#c1773d" class=""></path><path d="m371 248.678h-50a7.5 7.5 0 0 1 -7.5-7.5v-50a7.5 7.5 0 0 1 7.5-7.5h50a7.5 7.5 0 0 1 7.5 7.5v50a7.5 7.5 0 0 1 -7.5 7.5zm-42.5-15h35v-35h-35z" fill="#ffc980" data-original="#ffc980" class=""></path><path d="m346 258.678a7.5 7.5 0 0 1 -7.5-7.5v-30a7.5 7.5 0 0 1 15 0v30a7.5 7.5 0 0 1 -7.5 7.5z" fill="#ffb155" data-original="#ffb155" class=""></path><path d="m166 286.5a20 20 0 0 1 -20-20v-200a10 10 0 0 1 10-10h20a10 10 0 0 1 10 10v200a20 20 0 0 1 -20 20z" fill="#c1773d" data-original="#c1773d" class=""></path><path d="m191 248.678h-50a7.5 7.5 0 0 1 -7.5-7.5v-50a7.5 7.5 0 0 1 7.5-7.5h50a7.5 7.5 0 0 1 7.5 7.5v50a7.5 7.5 0 0 1 -7.5 7.5zm-42.5-15h35v-35h-35z" fill="#ffc980" data-original="#ffc980" class=""></path><path d="m166 258.678a7.5 7.5 0 0 1 -7.5-7.5v-30a7.5 7.5 0 0 1 15 0v30a7.5 7.5 0 0 1 -7.5 7.5z" fill="#ffb155" data-original="#ffb155" class=""></path></g></svg>