<svg xmlns="http://www.w3.org/2000/svg" version="1.1" xmlns:xlink="http://www.w3.org/1999/xlink" xmlns:svgjs="http://svgjs.com/svgjs" width="512" height="512" x="0" y="0" viewBox="0 0 490 490" style="enable-background:new 0 0 512 512" xml:space="preserve" class=""><g><g><path d="m326.667 474.726 163.333-40.497v-348.487l-163.333 40.497z" fill="#61b03f" data-original="#77bf9a" class=""></path><path d="m163.333 434.229 163.334 40.497-.004-348.491-163.33-40.493z" fill="#4a8332" data-original="#66a582" class=""></path><path d="m0 474.726 163.333-40.497v-348.487l-163.333 40.497z" fill="#61b03f" data-original="#77bf9a" class=""></path><circle cx="131.155" cy="164.735" fill="#d6d8e0" r="85.496" data-original="#d6d8e0" class=""></circle><path d="m216.65 164.735c0 47.21-38.28 85.49-85.5 85.49-4.69 0-9.28-.38-13.76-1.11 40.68-6.57 71.74-41.85 71.74-84.38s-31.06-77.81-71.74-84.39c4.48-.73 9.07-1.11 13.76-1.11 47.22 0 85.5 38.28 85.5 85.5z" fill="#e7e8ed" data-original="#e7e8ed"></path><g fill="#de5866"><path d="m150.857 164.735-19.702-53.022-19.703 53.022 19.703 53.021z" fill="#de5866" data-original="#de5866"></path><path d="" fill="#de5866" data-original="#de5866"></path></g><path d="m131.155 86.739c-19.703 0-35.732-16.029-35.732-35.732s16.029-35.732 35.732-35.732 35.732 16.029 35.732 35.732-16.029 35.732-35.732 35.732zm0-56.465c-11.432 0-20.732 9.3-20.732 20.732s9.3 20.732 20.732 20.732 20.732-9.3 20.732-20.732-9.3-20.732-20.732-20.732z" fill="#eab74d" data-original="#eab74d" class=""></path><g><path d="m316.276 289.409c0 40.299 20.615 75.77 51.863 96.484 31.248-20.715 51.863-56.185 51.863-96.484 0-1.259-.02-2.514-.06-3.764-2.107-65.88-101.5-65.88-103.607 0-.039 1.25-.059 2.505-.059 3.764z" fill="#de5866" data-original="#de5866"></path><circle cx="368.139" cy="290.233" fill="#ffffff" r="28.499" data-original="#ffffff" class=""></circle></g><path d="m374.469 432.19c-.49 0-.987-.048-1.486-.148-10.703-2.153-20.561-5.759-30.138-11.027-3.629-1.996-4.954-6.557-2.958-10.186s6.555-4.955 10.186-2.958c8.221 4.521 16.682 7.618 25.867 9.464 4.061.817 6.691 4.771 5.874 8.832-.716 3.562-3.846 6.023-7.345 6.023zm-52.235-27.779c-1.771 0-3.548-.624-4.977-1.892-7.333-6.512-14.222-13.528-21.824-21.365-2.884-2.973-2.812-7.721.161-10.605 2.974-2.884 7.721-2.812 10.605.161 7.389 7.617 14.071 14.424 21.018 20.592 3.097 2.75 3.378 7.491.628 10.588-1.481 1.67-3.542 2.521-5.611 2.521zm-275.767-26.864c-1.583 0-3.179-.5-4.536-1.532-3.293-2.508-3.935-7.208-1.43-10.503.32-.42 7.985-10.444 21.458-22.885 3.042-2.811 7.788-2.621 10.598.422s2.621 7.788-.422 10.598c-12.433 11.48-19.624 20.853-19.695 20.946-1.477 1.936-3.713 2.954-5.973 2.954zm233.182-15.361c-1.851 0-3.705-.681-5.155-2.054-7.681-7.273-14.933-13.436-22.168-18.841-3.319-2.479-3.999-7.179-1.521-10.498 2.479-3.318 7.179-3.999 10.498-1.52 7.707 5.758 15.396 12.289 23.504 19.966 3.008 2.848 3.137 7.595.29 10.603-1.476 1.558-3.46 2.344-5.448 2.344zm-189.193-25.333c-2.383 0-4.726-1.133-6.181-3.243-2.352-3.41-1.493-8.08 1.917-10.432 8.89-6.13 18.02-11.363 27.134-15.554 3.766-1.729 8.217-.081 9.947 3.682 1.73 3.764.082 8.217-3.682 9.947-8.332 3.83-16.704 8.633-24.884 14.273-1.3.897-2.783 1.327-4.251 1.327zm141.108-10.175c-1.196 0-2.409-.287-3.537-.891-4.334-2.323-8.841-4.514-13.395-6.513-4.217-1.851-8.514-3.458-12.773-4.776-3.957-1.225-6.172-5.425-4.947-9.382s5.425-6.17 9.382-4.947c4.799 1.485 9.632 3.292 14.367 5.37 4.911 2.156 9.773 4.521 14.452 7.028 3.651 1.957 5.024 6.502 3.067 10.153-1.352 2.523-3.941 3.958-6.616 3.958zm-86.75-14.334c-3.452 0-6.559-2.398-7.322-5.909-.879-4.048 1.689-8.042 5.737-8.921 10.56-2.294 21.284-3.237 31.688-2.805 4.139.172 7.354 3.667 7.182 7.805-.172 4.139-3.689 7.349-7.805 7.182-9.138-.381-18.568.452-27.881 2.476-.536.116-1.072.172-1.599.172z" fill="#3e4a56" data-original="#3e4a56" class=""></path><g><path d="m406.531 172.096 22.803-22.803 22.803 22.803c1.464 1.464 3.384 2.197 5.303 2.197s3.839-.732 5.303-2.197c2.929-2.929 2.929-7.678 0-10.606l-28.106-28.106c-2.929-2.929-7.678-2.929-10.606 0l-28.106 28.106c-2.929 2.929-2.929 7.678 0 10.606 2.928 2.929 7.677 2.929 10.606 0z" fill="#4a8332" data-original="#66a582" class=""></path><path d="m434.636 165.811c-2.929-2.929-7.678-2.929-10.606 0l-28.106 28.106c-2.929 2.929-2.929 7.678 0 10.606 2.929 2.929 7.678 2.929 10.606 0l15.303-15.303v28.945c0 4.142 3.358 7.5 7.5 7.5s7.5-3.358 7.5-7.5v-28.945l15.303 15.303c1.464 1.464 3.384 2.197 5.303 2.197s3.839-.732 5.303-2.197c2.929-2.929 2.929-7.678 0-10.606z" fill="#4a8332" data-original="#66a582" class=""></path><g fill="#77bf9a"><path d="m269.449 203.504c-1.406-1.407-3.314-2.197-5.303-2.197s-3.897.79-5.303 2.197l-28.106 28.106c-2.929 2.929-2.929 7.678 0 10.606 2.929 2.929 7.678 2.929 10.606 0l22.803-22.803 22.803 22.803c1.464 1.465 3.384 2.197 5.303 2.197s3.839-.732 5.303-2.197c2.929-2.929 2.929-7.678 0-10.606z" fill="#61b03f" data-original="#77bf9a" class=""></path><path d="m269.449 235.931c-2.929-2.929-7.678-2.929-10.606 0l-28.106 28.106c-2.929 2.929-2.929 7.678 0 10.606 2.929 2.929 7.678 2.929 10.606 0l15.303-15.303v28.945c0 4.142 3.358 7.5 7.5 7.5s7.5-3.358 7.5-7.5v-28.945l15.303 15.303c1.464 1.464 3.384 2.197 5.303 2.197s3.839-.732 5.303-2.197c2.929-2.929 2.929-7.678 0-10.606z" fill="#61b03f" data-original="#77bf9a" class=""></path></g></g><path d="m131.155 257.73c-51.278 0-92.996-41.718-92.996-92.996s41.718-92.996 92.996-92.996 92.996 41.718 92.996 92.996-41.718 92.996-92.996 92.996zm0-170.991c-43.007 0-77.996 34.989-77.996 77.996s34.989 77.996 77.996 77.996 77.996-34.989 77.996-77.996-34.989-77.996-77.996-77.996z" fill="#eab74d" data-original="#eab74d" class=""></path><path d="m150.857 164.735h-39.405l19.703 53.021z" fill="#7da2dc" data-original="#7da2dc" class=""></path></g></g></svg>