<svg xmlns="http://www.w3.org/2000/svg" version="1.1" xmlns:xlink="http://www.w3.org/1999/xlink" xmlns:svgjs="http://svgjs.com/svgjs" width="512" height="512" x="0" y="0" viewBox="0 0 512.021 512.021" style="enable-background:new 0 0 512 512" xml:space="preserve" class="">
    <g>
        <g>
            <g>
                <path d="m214.818 51.478c11.136-10.823 28.077-23.53 49.517-24.759 36.919-2.116 53.981 31.704 87.343 37.826 22.885 4.2 56.277-4.114 103.877-55.747 2.414-2.619 6.779-1.027 6.949 2.531 3.126 65.43-43.786 123.383-106.699 132.994-61.769 9.436-123.365-30.108-140.987-92.845z" fill="#ff8087" data-original="#ff8087"></path>
                <g>
                    <path d="m462.504 11.329c-.17-3.558-4.535-5.15-6.949-2.531-8.344 9.05-16.249 16.765-23.739 23.319-6.46 56.541-49.861 103.627-106.012 112.206-1.096.167-2.192.315-3.288.452 10.917 1.352 22.099 1.257 33.288-.452 62.915-9.611 109.826-67.564 106.7-132.994z" fill="#e6646e" data-original="#e6646e"></path>
                </g>
                <ellipse cx="214.152" cy="80.036" fill="#918291" rx="36.508" ry="35.927" data-original="#918291"></ellipse>
                <path d="m214.152 44.109c-5.348 0-10.423 1.141-15 3.174 12.679 5.633 21.508 18.174 21.508 32.753s-8.829 27.12-21.508 32.753c4.577 2.033 9.652 3.174 15 3.174 20.163 0 36.508-16.085 36.508-35.927s-16.345-35.927-36.508-35.927z" fill="#7a6d79" data-original="#7a6d79"></path>
                <path d="m214.152 89.759c-82.721 0-149.779 65.992-149.779 147.397v36.465h299.558v-36.465c0-81.405-67.058-147.397-149.779-147.397z" fill="#685e68" data-original="#685e68" class=""></path>
                <path d="m214.152 89.759c-5.063 0-10.066.251-15 .733 75.677 7.406 134.779 70.241 134.779 146.664v36.465h30v-36.465c0-81.404-67.058-147.397-149.779-147.397z" fill="#595159" data-original="#595159"></path>
                <path d="m358.8 418.453-136.409 83.725c-5.043 3.095-11.436 3.095-16.479 0l-136.408-83.725c-3.192-1.959-5.131-5.399-5.131-9.1v-101.15h299.558v101.149c0 3.702-1.939 7.142-5.131 9.101z" fill="#685e68" data-original="#685e68" class=""></path>
                <path d="m333.931 308.203v89.262c0 3.701-1.94 7.141-5.131 9.1l-136.409 83.725c-1.063.652-2.187 1.159-3.344 1.536l16.865 10.352c5.043 3.095 11.436 3.095 16.479 0l136.409-83.725c3.191-1.959 5.131-5.399 5.131-9.101v-101.149z" fill="#595159" data-original="#595159"></path>
                <path d="m371.482 338.059-154.779 40.835c-1.672.441-3.43.441-5.102 0l-154.779-40.835c-4.39-1.158-7.449-5.129-7.449-9.669v-64.148c0-4.54 3.059-8.511 7.449-9.669l154.779-40.835c1.672-.441 3.43-.441 5.102 0l154.779 40.835c4.39 1.158 7.449 5.129 7.449 9.669v64.148c0 4.54-3.059 8.511-7.449 9.669z" fill="#918291" data-original="#918291"></path>
                <path d="m348.931 248.623v95.385l22.551-5.949c4.39-1.158 7.449-5.129 7.449-9.669v-64.148c0-4.54-3.059-8.511-7.449-9.669z" fill="#7a6d79" data-original="#7a6d79"></path>
            </g>
            <path d="m120.735 269.022c-4.143 0-7.5 3.357-7.5 7.5v39.588c0 4.143 3.357 7.5 7.5 7.5s7.5-3.357 7.5-7.5v-39.588c0-4.142-3.357-7.5-7.5-7.5zm186.834 54.588c4.143 0 7.5-3.357 7.5-7.5v-39.588c0-4.143-3.357-7.5-7.5-7.5s-7.5 3.357-7.5 7.5v39.588c0 4.143 3.357 7.5 7.5 7.5zm162.424-312.639c-.222-4.651-3.188-8.684-7.559-10.273-4.367-1.592-9.232-.408-12.396 3.017-37.286 40.442-69.919 58.434-97.001 53.457-13.068-2.4-23.57-9.737-34.689-17.506-15.322-10.704-31.178-21.771-54.447-20.435-15.054.866-29.802 6.844-43.884 17.775-1.92-.253-3.875-.397-5.865-.397-24.267 0-44.01 19.482-44.01 43.43 0 2.77.265 5.504.785 8.186-10.341 2.9-20.371 6.826-29.875 11.747-3.678 1.905-5.115 6.431-3.211 10.109 1.906 3.679 6.434 5.114 10.109 3.211 18.055-9.351 38.207-14.758 58.701-15.825v109.82l-134.78 35.559v-5.687c0-40.179 17.604-78.464 48.299-105.039 3.132-2.711 3.473-7.447.761-10.579-2.713-3.132-7.45-3.473-10.579-.761-33.987 29.426-53.48 71.845-53.48 116.379v9.644c-8.559 1.437-14.999 8.75-14.999 17.439v64.148c-.066 8.475 6.469 16.136 14.999 17.439v63.519c0 6.367 3.259 12.161 8.706 15.492l136.414 83.732c7.502 4.599 16.821 4.597 24.324-.003l136.398-83.723c5.459-3.338 8.718-9.132 8.718-15.499v-63.52c8.373-1.831 15.06-8.46 14.999-17.438v-64.148c-.012-8.862-6.471-15.853-14.999-17.439v-9.644c0-31.049-9.331-59.988-25.365-84.256 3.633-.241 7.262-.62 10.868-1.17 32.343-4.94 61.759-22.085 82.829-48.275 21.093-26.218 31.828-59.064 30.229-92.486zm-284.43 73.871c-.274-1.578-.421-3.181-.421-4.804 0-15.676 13.014-28.43 29.01-28.43s29.01 12.754 29.01 28.43c0 1.619-.146 3.219-.419 4.792-9.275-1.684-18.829-2.572-28.591-2.572-9.603 0-19.181.875-28.589 2.584zm185.868 179.4v64.148c0 1.134-.766 2.128-1.862 2.417l-56.413 14.883c-4.005 1.057-6.396 5.16-5.339 9.165s5.161 6.394 9.165 5.339l39.45-10.408v59.562c0 1.102-.576 2.111-1.554 2.709l-136.406 83.727c-2.624 1.611-6.017 1.609-8.637.003l-136.421-83.737c-.966-.591-1.542-1.601-1.542-2.702v-59.562l137.819 36.361c2.92.768 6.005.768 8.925-.001l64.425-16.997c4.005-1.057 6.396-5.16 5.339-9.165s-5.16-6.397-9.165-5.339l-64.422 16.996c-.419.111-.861.11-1.278.001l-154.78-40.835c-1.097-.289-1.862-1.283-1.862-2.417v-64.148c0-1.134.766-2.128 1.862-2.417 0 0 155.186-40.789 155.417-40.789s155.417 40.789 155.417 40.789c1.097.289 1.862 1.283 1.862 2.417zm-14.999-27.083v5.687l-134.78-35.559v-109.834c74.98 3.847 134.78 65.038 134.78 139.706zm-1.76-100.254c-6.513.992-13.104 1.415-19.642 1.266-19.959-23.601-46.89-41.29-77.652-49.962.518-2.677.783-5.406.783-8.17 0-15.517-8.295-29.151-20.733-36.834 9.017-5.443 18.171-8.471 27.333-8.999 18.095-1.023 31.161 8.091 44.996 17.756 11.944 8.345 24.295 16.974 40.57 19.964 14.803 2.718 30.681.188 47.191-7.52 18.007-8.405 37.358-23.266 57.598-44.217-1.317 57.695-44.01 108.096-100.444 116.716zm-148.02 121.432v84.085c0 4.143 3.357 7.5 7.5 7.5s7.5-3.357 7.5-7.5v-84.085c0-4.143-3.357-7.5-7.5-7.5s-7.5 3.357-7.5 7.5zm54.208 81.886c4.143 0 7.5-3.357 7.5-7.5v-65.393c0-4.143-3.357-7.5-7.5-7.5s-7.5 3.357-7.5 7.5v65.393c0 4.143 3.357 7.5 7.5 7.5zm-93.416-80.392c-4.143 0-7.5 3.357-7.5 7.5v65.393c0 4.143 3.357 7.5 7.5 7.5s7.5-3.357 7.5-7.5v-65.393c0-4.143-3.357-7.5-7.5-7.5z" fill="#000000" data-original="#000000" class=""></path>
        </g>
    </g>
</svg>