<svg xmlns="http://www.w3.org/2000/svg" version="1.1" xmlns:xlink="http://www.w3.org/1999/xlink" xmlns:svgjs="http://svgjs.com/svgjs" width="512" height="512" x="0" y="0" viewBox="0 0 1706.66 1706.66" style="enable-background:new 0 0 512 512" xml:space="preserve" class="">
    <g>
        <g id="Layer_x0020_1">
            <path d="m462.09 983.33c-26.59 0-46.53-25.57-46.53-51.25v-256.94c0-28.95 25.07-56.56 54.86-50.42l159.86 33.61c25.78 5.35 17.56 44.71-8.33 39.17l-159.86-33.61c-1.87-.19-6.67 5.24-6.67 11.25v256.94c0 6.19 4.94 11.43 6.67 11.25l159.86-33.61c25.81-5.53 34.07 33.66 8.33 39.17-20.96 4.48-158.38 34.44-168.2 34.44z" fill="#000000" data-original="#000000" class=""></path>
            <path d="m1202.63 983.33c-10.5 0-146.13-29.83-168.33-34.44-25.78-5.35-17.56-44.71 8.33-39.17l159.86 33.61c1.93.2 6.67-5.32 6.67-11.25v-256.94c0-6.35-5.14-11.6-6.67-11.25l-159.86 33.61c-25.79 5.35-34.09-33.65-8.33-39.17l159.86-33.61c29.85-6.29 55 21.4 55 50.42v256.94c0 25.68-19.93 51.25-46.53 51.25z" fill="#000000" data-original="#000000" class=""></path>
            <path d="m836.11 1010.13c-72.22 0-145.56-21.11-219.72-63.47-6.25-3.61-10.14-10.14-10.14-17.36v-251.39c0-4.31 1.39-8.47 3.89-11.81 146.3-196.87 299.77-199.48 444.58.14 2.5 3.47 3.89 7.5 3.89 11.81v251.39c0 6.94-3.61 13.47-9.58 17.08-69.45 42.37-140.56 63.61-212.92 63.61zm-189.86-92.5c129.58 70.42 251.52 70.56 372.22.42v-233.47c-62.78-84.31-125.28-126.94-185.55-127.08 0 0-.14 0-.28 0-60.42 0-123.19 42.78-186.53 127.08v233.05z" fill="#000000" data-original="#000000" class=""></path>
            <path d="m832.36 904.02c-51.67 0-93.61-41.94-93.61-93.61s41.94-93.61 93.61-93.61c51.66 0 93.61 41.94 93.61 93.61 0 51.66-41.94 93.61-93.61 93.61zm0-147.22c-70.57 0-70.57 107.22 0 107.22s70.57-107.22 0-107.22z" fill="#000000" data-original="#000000" class=""></path>
            <path d="m853.33 1706.66c-12.59 0-22.85-12.13-19.3-25.14l98.33-369.86c.83-2.92 19.44-70.28 77.22-85.56 15.56-6.39 197.78-84.03 225.83-221.53-2.36-10-8.61-28.06-24.44-60.28-11.64-23.64 24.35-41.37 35.97-17.64 14.5 29.59 27.56 61.5 28.75 74.86 15.69 87.22 3.33 195.97-36.53 322.92-.83 2.78-2.36 5.42-4.31 7.5-149.28 161.31-280.62 96.53-362.36 360.69-2.63 8.48-10.55 14.03-19.16 14.03zm388.75-613.89c-69.17 111.25-213.61 169.52-221.53 171.81-35.83 8.75-49.44 56.94-49.58 57.5l-50.14 188.47c41.11-47.78 87.08-72.36 134.72-97.64 47.78-25.42 97.08-51.81 146.8-104.72 24.86-80.42 38.2-152.51 39.72-215.42z" fill="#000000" data-original="#000000" class=""></path>
            <path d="m853.33 1706.66c-8.19 0-15.83-5.14-18.74-13.19-95.93-266.01-231.78-204.19-381.25-361.25-1.94-2.08-3.47-4.44-4.44-7.08-46.39-126.94-64.31-235.69-53.19-322.92.82-12.9 10.87-42.2 22.64-69.86 10.26-24.11 47.11-8.43 36.8 15.69-13.06 30.42-17.5 46.94-19.17 55.28 35.42 138.47 222.64 216.11 238.19 222.36 57.92 15 79.86 81.81 80.69 84.58l117.5 370.28c4.19 13.13-5.87 26.11-19.03 26.11zm-368.47-399.17c104.46 105.84 204.05 106.76 290.97 201.52l-59.03-186.11c-.14-.42-16.53-49.31-53.47-58.19-7.24-1.46-154.81-60.33-229.3-170.69 5.14 62.36 22.09 133.75 50.83 213.47z" fill="#000000" data-original="#000000" class=""></path>
            <path d="m1601.66 1706.66h-1496.66c-11.11 0-20-9.03-20-20 0-214.03 153.33-395.28 364.44-430.83 26.11-4.35 32.48 35.12 6.67 39.44-182.22 30.69-321.11 188.47-330.69 371.39h1455.69c-9.58-192.36-156.94-351.53-350.14-374.3-26.27-3.04-21.33-42.92 4.72-39.72 220 25.83 385.97 212.5 385.97 434.03 0 10.97-8.89 20-20 20z" fill="#000000" data-original="#000000" class=""></path>
            <path d="m832.36 1100.55c-116.39 0-226.11-51.67-301.39-141.67-16.85-20.15 13.88-45.81 30.69-25.69 141.63 169.52 399.61 169.52 541.24 0 7.08-8.47 19.72-9.58 28.19-2.5s9.58 19.72 2.5 28.19c-75.13 90-184.85 141.67-301.24 141.67zm372.63-436.38c-10.97 0-20-8.89-20-20v-251.39c0-194.44-158.19-352.64-352.63-352.64s-352.64 158.19-352.64 352.64v251.39c0 26.36-40 26.36-40 0v-251.39c0-216.67 176.11-392.78 392.64-392.78 216.52 0 392.63 176.11 392.63 392.64v251.39c0 11.11-8.89 20.14-20 20.14z" fill="#000000" data-original="#000000" class=""></path>
            <path d="m1205 551.94c-8.33 0-16.11-5.28-18.89-13.47-22.08-64.31-56.67-107.92-102.5-129.58-80.55-38.06-135.79 2.88-155.14-6.39-4.86-2.36-8.61-6.67-10.28-11.94-13.75-43.33 9.03-98.33 29.17-135-155.6 46.85-259.89 314.03-497.76 175-22.77-13.31-2.34-47.76 20.28-34.44 230.62 135.71 310.56-179.55 517.08-187.36 16.53-.63 26.84 18.2 17.08 31.67-15.14 20.97-48.89 77.22-50 118.75 120.14-26.7 223.02 30.3 270 166.39 4.34 12.57-4.53 26.39-19.03 26.39z" fill="#000000" data-original="#000000" class=""></path>
            <path d="m625.7 1245.69c-12.98 0-22.76-12.41-19.44-25.14l47.5-181.11c6.65-25.47 45.41-15.4 38.75 10.14l-47.5 181.11c-2.36 9.03-10.42 15-19.31 15z" fill="#000000" data-original="#000000" class=""></path>
            <path d="m1045.55 1251.52c-8.89 0-16.94-5.97-19.31-15l-49.58-189.03c-6.67-25.54 32.1-35.62 38.75-10.14l49.58 189.03c3.32 12.73-6.46 25.14-19.44 25.14z" fill="#000000" data-original="#000000" class=""></path>
            <path d="m654.86 556.94c-19.57 0-48.89 4.88-48.89-20s29.31-20 48.89-20c26.43 0 26.27 40 0 40z" fill="#000000" data-original="#000000" class=""></path>
            <path d="m1038.75 556.94c-19.36 0-48.89 4.87-48.89-20s29.53-20 48.89-20c26.27 0 26.43 40 0 40z" fill="#000000" data-original="#000000" class=""></path>
            <path d="m1339.44 1706.66c-11.11 0-20-9.03-20-20v-133.06c0-26.26 40-26.37 40 0v133.06c0 10.97-8.89 20-20 20z" fill="#000000" data-original="#000000" class=""></path>
            <path d="m367.22 1706.66c-11.11 0-20-9.03-20-20v-133.06c0-26.35 40-26.3 40 0v133.06c0 11.11-9.03 20-20 20z" fill="#000000" data-original="#000000" class=""></path>
            <path d="m738.75 810.41c0-51.67 41.94-93.61 93.61-93.61 51.66 0 93.61 41.94 93.61 93.61 0 51.66-41.94 93.61-93.61 93.61s-93.61-41.94-93.61-93.61zm-92.5 107.22c129.58 70.42 251.52 70.56 372.22.42v-233.47c-62.78-84.31-125.28-126.94-185.55-127.08 0 0-.14 0-.28 0-60.42 0-123.19 42.78-186.53 127.08v233.05z" fill="#474747" data-original="#474747" class=""></path>
            <path d="m832.36 756.8c-70.57 0-70.57 107.22 0 107.22s70.57-107.22 0-107.22z" fill="#212121" data-original="#212121" class=""></path>
            <path d="m1058.61 694.13v218.95l62.71 13.19c.71.11 1.42.26 2.12.44l79.04 16.62c1.56.16 4.94-3.41 6.19-7.91-.03-1.54.14-3.03.47-4.45v-255.83c0-5.37-3.67-9.95-5.73-11.03-.44-.04-.87-.08-1.31-.15l-143.51 30.17z" fill="#373737" data-original="#373737" class=""></path>
            <path d="m1046.91 655.68 138.09-29.04v-91.36c-22.12-62.56-56.31-105.09-101.39-126.4-80.55-38.06-135.79 2.88-155.14-6.39-4.86-2.36-8.61-6.67-10.28-11.94-13.75-43.33 9.03-98.33 29.17-135-148.87 44.82-250.77 291.33-467.63 190.81v180.3l138.26 29.07c141.3-183.13 289-185.52 428.92-.06zm-392.05-138.74c26.43 0 26.27 40 0 40-19.57 0-48.89 4.88-48.89-20s29.31-20 48.89-20zm383.89 0c26.27 0 26.43 40 0 40-19.36 0-48.89 4.87-48.89-20s29.53-20 48.89-20z" fill="#f8b9a0" data-original="#f8b9a0"></path>
            <path d="m954.03 359.16c93.53-20.79 176.59 9.15 230.97 87.64v-54.03c0-194.44-158.19-352.64-352.63-352.64s-352.64 158.19-352.64 352.64v8.91c223.09 121.13 303.67-185.24 507.22-192.94 16.53-.63 26.84 18.2 17.08 31.67-15.14 20.97-48.89 77.22-50 118.75z" fill="#474747" data-original="#474747" class=""></path>
            <path d="m606.26 913.02v-218.82l-144.17-30.31c-1.87-.19-6.67 5.24-6.67 11.25v256.94c0 .17 0 .34.01.5.74 1.67 1.23 3.47 1.42 5.38 1.59 3.28 4.11 5.48 5.24 5.37l80.65-16.96c.26-.06.51-.11.76-.16z" fill="#373737" data-original="#373737" class=""></path>
            <path d="m836.11 1010.13c-70.04 0-141.14-19.86-213.02-59.7-8.65 1.87-22.28 4.81-38.06 8.2 137.1 135.62 357.44 135.6 494.53-.04-15.25-3.28-28.54-6.15-37.3-8.02-67.31 39.67-136.15 59.56-206.16 59.56z" fill="#f8b9a0" data-original="#f8b9a0"></path>
            <path d="m832.36 1100.55c-50.63 0-100-9.78-145.82-28.23l-37.32 142.29c12.98 6.19 22.02 9.91 24.95 11.08 57.92 15 79.86 81.81 80.69 84.58l96.78 305 80.72-303.61c.83-2.92 19.44-70.28 77.22-85.56 1.89-.78 6.25-2.61 12.49-5.47l-39.39-150.17c-47.07 19.65-98.02 30.09-150.32 30.09z" fill="#fa9682" data-original="#fa9682"></path>
            <path d="m1019.46 1052.8 39.17 149.34c60.61-33.44 157-100.63 176.78-197.56-1.43-6.04-4.26-15-9.77-28.24-6.7 4.39-14.52 6.99-23.01 6.99-5.13 0-40.15-7.13-77.21-14.95-30.65 34.48-66.54 62.89-105.96 84.42z" fill="#fbb701" data-original="#fbb701" class=""></path>
            <path d="m1242.08 1092.77c-69.17 111.25-213.61 169.52-221.53 171.81-35.83 8.75-49.44 56.94-49.58 57.5l-50.14 188.47c41.11-47.78 87.08-72.36 134.72-97.64 47.78-25.42 97.08-51.81 146.8-104.72 24.86-80.42 38.2-152.51 39.72-215.42z" fill="#fbe201" data-original="#fbe201" class=""></path>
            <path d="m716.8 1322.91c-.14-.42-16.53-49.31-53.47-58.19-7.24-1.46-154.81-60.33-229.3-170.69 5.14 62.36 22.09 133.75 50.83 213.47 104.46 105.84 204.05 106.76 290.97 201.52z" fill="#fbe201" data-original="#fbe201" class=""></path>
            <path d="m612.77 1195.69 36.86-140.53c-41.16-21.8-78.62-51.03-110.46-86.78-37.17 7.82-72.3 14.94-77.09 14.94-6.85 0-13.26-1.7-19-4.66-4.16 11.89-6.12 19.72-7.11 24.66 23.54 92.02 114.11 157.17 176.8 192.37z" fill="#fbb701" data-original="#fbb701" class=""></path>
            <g fill="#d62966">
                <path d="m824.35 1666.66c-95.24-235.13-226.78-182.89-371.01-334.44-1.94-2.08-3.47-4.44-4.44-7.08-3.28-8.98-6.43-17.88-9.42-26.68-173.98 37.21-304.76 190.9-314.05 368.2h221.8v-113.06c0-26.35 40-26.3 40 0v113.06z" fill="#d62966" data-original="#d62966" class=""></path>
                <path d="m1234.85 1331.93c-144.18 155.8-271.61 100.69-353.8 334.72h438.39v-113.06c0-26.26 40-26.37 40 0v113.06h221.67c-9.3-186.64-148.3-342.03-333.03-371.91-2.8 9.78-5.78 19.68-8.92 29.69-.83 2.78-2.36 5.42-4.31 7.5z" fill="#d62966" data-original="#d62966" class=""></path>
            </g>
        </g>
    </g>
</svg>