<svg xmlns="http://www.w3.org/2000/svg" version="1.1" xmlns:xlink="http://www.w3.org/1999/xlink" xmlns:svgjs="http://svgjs.com/svgjs" width="512" height="512" x="0" y="0" viewBox="0 0 480 480" style="enable-background:new 0 0 512 512" xml:space="preserve" class=""><g>
<path style="" d="M417.6,48.104l-105.6-24c-4.8-0.8-9.6,2.4-9.6,8v14.4c0,22.4-17.6,40-40,40h-41.6
	c-22.4,0-40-17.6-40-40v-14.4c0-4.8-4.8-8.8-9.6-8l-108.8,24c-36,8-62.4,40.8-62.4,78.4v24h96v285.6c0,11.2,8.8,20,20,20h248
	c11.2,0,20-8.8,20-20v-285.6h96v-24C480,88.904,454.4,56.104,417.6,48.104z" fill="#81d4fa" data-original="#81d4fa" class=""></path>
<path style="" d="M227.2,167.304l-115.2,24v-57.6H96v190.4c4.8,0,8.8-0.8,13.6-1.6l144-29.6
	c16.8-3.2,31.2-13.6,40.8-27.2c9.6-14.4,12.8-31.2,8.8-48C295.2,182.504,261.6,160.104,227.2,167.304z" fill="#4fc3f7" data-original="#4fc3f7"></path>
<path style="" d="M88,308.904c-20,0-39.2-7.2-55.2-20c-20.8-16.8-32.8-41.6-32.8-68v-71.2h96v60.8l134.4-28
	c25.6-5.6,51.2,11.2,56.8,37.6s-11.2,51.2-36.8,56.8l-144,29.6C100,308.104,93.6,308.904,88,308.904z" fill="#81d4fa" data-original="#81d4fa" class=""></path>
<path style="" d="M252.8,167.304l115.2,24v-57.6h16v190.4c-4.8,0-8.8-0.8-13.6-1.6l-144-29.6
	c-16.8-3.2-31.2-13.6-40.8-27.2c-9.6-14.4-12.8-31.2-8.8-48C184.8,182.504,218.4,160.104,252.8,167.304z" fill="#4fc3f7" data-original="#4fc3f7"></path>
<path style="" d="M392,308.904c20,0,39.2-7.2,55.2-20c20.8-16.8,32.8-41.6,32.8-68v-71.2h-96v60.8l-134.4-28
	c-25.6-5.6-51.2,11.2-56.8,37.6s11.2,51.2,36.8,56.8l144,29.6C380,308.104,386.4,308.904,392,308.904z" fill="#81d4fa" data-original="#81d4fa" class=""></path>
<g>
	<path style="" d="M417.6,48.104l-105.6-24c-3.2-0.8-6.4,0.8-8.8,3.2l90.4,20.8c36.8,8,62.4,40.8,62.4,78.4v24h24v-24
		C480,88.904,454.4,56.104,417.6,48.104z" fill="#4fc3f7" data-original="#4fc3f7"></path>
	<path style="" d="M456,150.504v71.2c0,26.4-12,51.2-32.8,68c-12.8,10.4-28,16.8-43.2,19.2c4,0.8,8,0.8,12,0.8
		c20,0,39.2-7.2,55.2-20c20.8-16.8,32.8-41.6,32.8-68v-71.2L456,150.504L456,150.504z" fill="#4fc3f7" data-original="#4fc3f7"></path>
</g>
<g>
	<path style="" d="M62.4,48.104l105.6-24c3.2-0.8,6.4,0.8,8.8,3.2l-90.4,20.8c-36.8,8-62.4,40.8-62.4,78.4v24H0v-24
		C0,88.904,25.6,56.104,62.4,48.104z" fill="#b3e5fc" data-original="#b3e5fc" class=""></path>
	<path style="" d="M24,150.504v71.2c0,26.4,12,51.2,32.8,68c12.8,10.4,28,16.8,43.2,19.2c-4,0.8-8,0.8-12,0.8
		c-20,0-39.2-7.2-55.2-20c-20.8-17.6-32.8-42.4-32.8-68.8v-71.2h24V150.504z" fill="#b3e5fc" data-original="#b3e5fc" class=""></path>
</g>
<path style="" d="M257.6,346.504h-32c-4.8,0-8-3.2-8-8v-208c0-4.8,3.2-8,8-8h32c4.8,0,8,3.2,8,8v208
	C265.6,342.504,262.4,346.504,257.6,346.504z" fill="#1976d2" data-original="#1976d2"></path>
<g>
	<path style="" d="M201.6,162.504v-8c0-4.8,3.2-8,8-8h64c4.8,0,8,3.2,8,8v8c0,4.8-3.2,8-8,8h-64
		C205.6,170.504,201.6,166.504,201.6,162.504z" fill="#1565c0" data-original="#1565c0"></path>
	<path style="" d="M201.6,312.904v-8c0-4.8,3.2-8,8-8h64c4.8,0,8,3.2,8,8v8c0,4.8-3.2,8-8,8h-64
		C205.6,320.904,201.6,317.704,201.6,312.904z" fill="#1565c0" data-original="#1565c0"></path>
</g>
<g>
</g>
<g>
</g>
<g>
</g>
<g>
</g>
<g>
</g>
<g>
</g>
<g>
</g>
<g>
</g>
<g>
</g>
<g>
</g>
<g>
</g>
<g>
</g>
<g>
</g>
<g>
</g>
<g>
</g>
</g></svg>