<svg xmlns="http://www.w3.org/2000/svg" version="1.1" xmlns:xlink="http://www.w3.org/1999/xlink" xmlns:svgjs="http://svgjs.com/svgjs" width="512" height="512" x="0" y="0" viewBox="0 0 1706.66 1706.66" style="enable-background:new 0 0 512 512" xml:space="preserve" class=""><g><g id="Layer_x0020_1"><path d="m1599.57 1659.21h-128.89c-10.97 0-20-9.03-20-20v-447.36c0-26.3 40-26.3 40 0v427.36h88.89v-427.36c0-26.3 40-26.3 40 0v447.36c0 11.11-8.89 20-20 20z" fill="#000000" data-original="#000000" class=""></path><path d="m1615.13 1211.85h-159.86c-50.56 0-91.53-41.11-91.53-91.53s41.11-91.53 91.53-91.53h159.86c50.56 0 91.53 41.11 91.53 91.53s-41.11 91.53-91.53 91.53zm-159.86-143.2c-67.88 0-67.72 103.06 0 103.06h159.86c67.88 0 67.72-103.06 0-103.06z" fill="#000000" data-original="#000000" class=""></path><path d="m1535.13 1068.66c-1.39 0-2.92-.14-4.31-.42-134.15-28.3-174.72-125.29-137.36-232.5 26.19-75.17 81.9-52.56 71.25-187.22-1.21-15.31 14.68-25.77 27.92-19.86 2.08.97 212.5 94.03 201.25 311.66-.05 1.77-10.86 128.33-158.74 128.33zm-29.17-387.63c-.64 114.13-56.01 113.87-74.58 167.78-8.89 25.69-20.42 74.86 2.36 115.56 17.36 30.97 52.08 52.5 103.33 64.31 111.94-4.72 116.67-86.81 116.81-90.28 7.35-143.47-95.7-225.28-147.92-257.36z" fill="#000000" data-original="#000000" class=""></path><path d="m1536.24 1068.66c-1.39 0-2.92-.14-4.31-.42-96.24-20.18-101.21-110.7-55.56-160.97 31.08-34.23 2.02-60.67 23.06-75.56 5.69-4.03 13.06-4.86 19.58-2.08 126.09 53.6 151.84 239.03 17.22 239.03zm-5.69-185.69c-5.4 42.96-29.8 49.09-36.8 69.17-3.89 11.25-9.03 32.64.56 49.58 7.08 12.64 21.81 21.67 43.75 26.94 42.92-2.36 47.08-30.14 47.5-35.69 2.78-55.83-29.86-91.25-55-110z" fill="#000000" data-original="#000000" class=""></path><path d="m373.47 1659.21c-11.11 0-20-9.03-20-20v-171.94c0-26.33 40-26.33 40 0v171.94c0 11.11-8.89 20-20 20z" fill="#000000" data-original="#000000" class=""></path><path d="m1267.77 1659.21c-10.97 0-20-9.03-20-20v-171.94c0-26.3 40-26.3 40 0v171.94c0 11.11-9.03 20-20 20z" fill="#000000" data-original="#000000" class=""></path><path d="m1470.69 1659.21h-1450.69c-11.11 0-20-9.03-20-20 0-336.63 261.81-410.9 503.06-493.47 24.88-8.52 37.99 29.33 12.92 37.92-232.3 79.53-465.51 144.68-475.56 435.56h1430.27c26.3 0 26.3 40 0 40zm0-306.94c-4.58 0-9.31-1.53-13.06-4.86-88.86-77.66-226.29-120.17-354.03-163.89-24.79-8.48-12.23-46.32 12.92-37.92 127.79 42.72 272.24 89.61 367.08 171.39 14.02 12.09 5.41 35.28-12.92 35.28z" fill="#000000" data-original="#000000" class=""></path><path d="m874.99 1659.21h-130.27c-11.11 0-20-9.03-20-20v-264.17c-136.53-43.89-257.5-182.92-257.5-299.58 0-50.56 34.31-104.86 94.03-148.89 21.09-15.52 44.79 16.62 23.75 32.08-48.75 35.83-77.78 79.58-77.78 116.81 0 102.92 117.92 231.94 242.78 265.42 9.31 2.5 15.42 11.25 14.72 20.83v257.64h90.27v-258.19c-.56-9.31 5.56-17.92 14.72-20.42 124.72-33.47 242.78-162.36 242.78-265.42 0-36.94-23.19-75.42-65.42-108.19-20.68-16.07 3.83-47.65 24.58-31.53 52.22 40.56 80.97 90.28 80.97 139.86 0 116.67-120.97 255.69-257.5 299.58v264.17c-.13 11.11-9.16 20-20.13 20z" fill="#000000" data-original="#000000" class=""></path><path d="m561.67 1475.05c-11.11 0-20-9.03-20-20v-213.33c0-26.33 40-26.33 40 0v213.19c0 11.11-9.03 20.14-20 20.14z" fill="#000000" data-original="#000000" class=""></path><path d="m1057.91 1475.05c-10.97 0-20-9.03-20-20v-213.33c0-26.3 40-26.3 40 0v213.19c0 11.11-8.89 20.14-20 20.14z" fill="#000000" data-original="#000000" class=""></path><path d="m604.3 1475.05h-85.28c-26.33 0-26.33-40 0-40h85.28c26.39 0 26.24 40 0 40z" fill="#000000" data-original="#000000" class=""></path><path d="m1100.69 1475.05h-85.42c-26.3 0-26.3-40 0-40h85.28c26.26 0 26.31 40 .14 40z" fill="#000000" data-original="#000000" class=""></path><path d="m818.47 1115.74c-161.8 0-293.47-131.67-293.47-293.47v-20.83c-23.63 0-55.28 5.63-55.28-20v-193.61c-92.5-152.64-15.56-294.3 20.42-346.8-76.53-39.86-89.72-114.44-85.14-151.39 1.82-14.91 18.94-22.55 31.25-13.89 2.78 1.94 73.33 48.06 204.17-2.22 148.75-57.22 323.61-2.78 330.97-.42 2.36.69 279.58 85.56 239.72 377.36-.28 3.06-9.72 85.56-34.58 161.67v169.03c0 26.6-35.44 20-64.86 20v21.11c.28 161.8-131.39 293.47-293.19 293.47zm-273.47-356.8c26.47 0 20 34.67 20 63.47 0 139.72 113.75 253.47 253.47 253.47s253.47-113.75 253.47-253.47c0-37.14-7.15-70.5 29.44-61.11h35.27v-140.14c-98.61-54.72-108.89-174.44-106.53-239.86-215.97 142.5-359.16 75.97-420.69 29.58-5.56 47.92-26.53 124.03-99.72 181.11v169.3h25.56c2.92-1.53 6.25-2.36 9.72-2.36zm508.88-438.61c12.39 0 21.62 11.09 19.72 23.33-.28 1.81-26.94 168.06 71.25 235.69 19.03-66.25 26.53-132.92 26.67-133.75 35.28-257.92-201.67-331.25-211.8-334.31-2.08-.69-169.44-52.64-304.85-.56-99.03 38.06-170 26.67-208.47 13.33 5.28 28.06 23.47 68.75 81.67 89.86 13.27 4.76 17.26 21.58 8.06 32.08-5.28 6.11-125.56 145.83-40.83 305.97 84.31-74.17 75.97-178.33 75.56-183.06-1.78-19.42 23.07-30.01 35.56-14.31 5.97 7.36 150.83 180.56 435.55-30.56 3.61-2.5 7.78-3.75 11.94-3.75z" fill="#000000" data-original="#000000" class=""></path><path d="m719.58 722.55h-52.64c-26.36 0-26.36-40 0-40h52.64c26.36 0 26.36 40 0 40z" fill="#000000" data-original="#000000" class=""></path><path d="m806.8 985.74c-46.39 0-106.21-27.24-83.47-54.44 7.08-8.47 19.58-9.72 28.06-2.64 2.22 1.81 49.72 38.47 119.58-1.81 22.66-13.2 42.97 21.49 20 34.72-31.53 18.05-60.13 24.16-84.16 24.16z" fill="#000000" data-original="#000000" class=""></path><path d="m952.77 722.55h-52.78c-26.33 0-26.33-40 0-40h52.64c26.29 0 26.34 40 .14 40z" fill="#000000" data-original="#000000" class=""></path><path d="m817.91 1310.88c-76.56 0-134.85-40.52-166.39-66.11-95.31-77.31-131.23-191.25-84.44-191.25 11.11 0 20 9.03 20 20 0 75.84 121.26 197.36 230.83 197.36 93.77 0 222.77-117.95 222.77-197.36 0-26.3 40-26.3 40 0 0 101.03-145.63 237.36-262.77 237.36z" fill="#000000" data-original="#000000" class=""></path><path d="m751.39 928.67c2.22 1.81 49.72 38.47 119.58-1.81 22.66-13.2 42.97 21.49 20 34.72-31.53 18.05-60.13 24.16-84.16 24.16-46.39 0-106.21-27.24-83.47-54.44 7.08-8.47 19.58-9.72 28.06-2.64zm-186.39-106.25c0 139.72 113.75 253.47 253.47 253.47s253.47-113.75 253.47-253.47c0-37.14-7.15-70.5 29.44-61.11h35.27v-140.14c-98.61-54.72-108.89-174.44-106.53-239.86-215.97 142.5-359.16 75.97-420.69 29.58-5.56 47.92-26.53 124.03-99.72 181.11v169.3h25.56c2.92-1.53 6.25-2.36 9.72-2.36 26.47 0 20 34.67 20 63.47zm387.77-99.86h-52.78c-26.33 0-26.33-40 0-40h52.64c26.29 0 26.34 40 .14 40zm-233.19 0h-52.64c-26.36 0-26.36-40 0-40h52.64c26.36 0 26.36 40 0 40z" fill="#b0806d" data-original="#f8b9a0" class=""></path><path d="m606.39 354.64c5.97 7.36 150.83 180.56 435.55-30.56 3.61-2.5 7.78-3.75 11.94-3.75 12.39 0 21.62 11.09 19.72 23.33-.28 1.81-26.94 168.06 71.25 235.69 19.03-66.25 26.53-132.92 26.67-133.75 35.28-257.92-201.67-331.25-211.8-334.31-2.08-.69-169.44-52.64-304.85-.56-99.03 38.06-170 26.67-208.47 13.33 5.28 28.06 23.47 68.75 81.67 89.86 13.27 4.76 17.26 21.58 8.06 32.08-5.28 6.11-125.56 145.83-40.83 305.97 84.31-74.17 75.97-178.33 75.56-183.06-1.78-19.42 23.07-30.01 35.56-14.31z" fill="#140303" data-original="#474747" class=""></path><path d="m1064.5 981.98c-52.32 80.46-143.07 133.76-246.03 133.76-106.67 0-200.25-57.23-251.63-142.59-37.7 32.72-59.61 69.98-59.61 102.31 0 48.78 26.5 103.44 67.67 151 1.52 1.23 2.85 2.72 3.93 4.46 45.37 50.79 107.37 92.85 171.19 109.96 9.31 2.5 15.42 11.25 14.72 20.83v257.5h90.27v-258.06c-.56-9.31 5.56-17.92 14.72-20.42 63.7-17.1 125.67-59.09 171.06-109.82 1.07-1.73 2.4-3.21 3.91-4.44 41.24-47.57 67.81-102.27 67.81-151.16 0-31.5-16.86-64.1-47.99-93.34zm-477.42 91.54c0 75.84 121.26 197.36 230.83 197.36 93.77 0 222.77-117.95 222.77-197.36 0-26.3 40-26.3 40 0 0 101.03-145.63 237.36-262.77 237.36-76.56 0-134.85-40.52-166.39-66.11-95.31-77.31-131.23-191.25-84.44-191.25 11.11 0 20 9.03 20 20z" fill="#fbe201" data-original="#fbe201" class=""></path><path d="m1057.91 1475.05h-42.64c-26.3 0-26.3-40 0-40h22.64v-144.5c-41.54 37.57-91.04 67.86-142.78 84.5v244.17h352.65v-151.94c0-26.3 40-26.3 40 0v151.94h162.91v-277.72c-85.14-70.74-211.19-111.74-330.95-152.47-11.47 20.72-25.59 41-41.82 60.21v185.82h22.64c26.26 0 26.31 40 .14 40h-42.78z" fill="#597da2" data-original="#597da2" class=""></path><path d="m724.72 1619.21v-244.17c-51.85-16.67-101.46-47.06-143.06-84.74v144.74h22.64c26.39 0 26.24 40 0 40h-42.64-42.64c-26.33 0-26.33-40 0-40h22.64v-186.15c-16.1-19.1-30.13-39.25-41.53-59.84-226.95 77.21-449.91 145.89-459.72 430.15h313.06v-151.94c0-26.33 40-26.33 40 0v151.94h331.25z" fill="#597da2" data-original="#597da2" class=""></path><path d="m1490.69 1211.85v407.36h88.88v-407.36z" fill="#bb663d" data-original="#bb663d" class=""></path><path d="m1455.27 1171.71h159.86c67.88 0 67.72-103.06 0-103.06h-78.89-1.11-79.86c-67.88 0-67.72 103.06 0 103.06z" fill="#9d5737" data-original="#9d5737" class=""></path><path d="m1540.52 1028.49c40.61-3.28 44.62-30.08 45.03-35.53 2.78-55.83-29.86-91.25-55-110-5.4 42.96-29.8 49.09-36.8 69.17-3.89 11.25-9.03 32.64.56 49.58 7.07 12.61 21.75 21.63 43.61 26.91.04 0 .09 0 .13-.01.83-.04 1.65-.08 2.47-.13z" fill="#ff7a1b" data-original="#ff7a1b" class=""></path><path d="m1519.02 829.63c74.49 31.67 113.96 109.34 106.04 167.61 26.95-25.24 28.75-56.74 28.83-58.86 7.35-143.47-95.7-225.28-147.92-257.36-.64 114.13-56.01 113.87-74.58 167.78-8.89 25.69-20.42 74.86 2.36 115.56 4.05 7.22 9.04 13.93 14.96 20.12-1.93-27.35 8.32-55.89 27.67-77.2 31.08-34.23 2.02-60.67 23.06-75.56 5.69-4.03 13.06-4.86 19.58-2.08z" fill="#ffba00" data-original="#ffba00" class=""></path></g></g></svg>