<svg xmlns="http://www.w3.org/2000/svg" version="1.1" xmlns:xlink="http://www.w3.org/1999/xlink" xmlns:svgjs="http://svgjs.com/svgjs" width="512" height="512" x="0" y="0" viewBox="0 0 512 512.00134" style="enable-background:new 0 0 512 512" xml:space="preserve" class=""><g><g fill-rule="evenodd"><path d="m336.335938 328.945312c19.675781-43.542968 22.417968-117.308593 1.34375-156.148437-4.34375-8.003906-14.839844-14.894531-18.863282-2.890625-3.351562 9.957031-5.128906 18.339844-7.023437 22.339844-11.339844 23.683594-45.414063 23.972656-46.347657-22.019532-2.476562-121.777343-84.125-170.371093-129.449218-170.226562-39.878906.117188 59.726562 71.3125-3.789063 174.109375-9.621093 15.59375-22.066406 5.957031-35.15625-5.695313-15.476562-13.785156-45.382812-21.492187-62.84375-8.761718-7.898437 1.957031 3.554688 13.082031 8.363281 22.867187 23.203126 47.105469 24.835938 46.8125 7.960938 86.675781-8.6875 20.5-6.269531 43.367188-1.195312 60.390626l142.65625 77.242187zm0 0" fill="#f78411" data-original="#f78411" class=""></path><path d="m53.121094 477.355469c-2.125-17.203125-15.710938-29.613281-30.3125-27.746094-1.574219.207031-3.121094.558594-4.578125 1.082031-12.039063 4.148438-19.851563 18.078125-17.925781 33.378906 2.128906 17.203126 15.710937 29.613282 30.285156 27.742188 1.050781-.113281 2.039062-.320312 3.03125-.582031l4.433594-1.695313c10.40625-5.253906 16.816406-18.132812 15.066406-32.179687zm0 0" fill="#fcc368" data-original="#fcc368"></path><path d="m191.988281 450.722656-14.222656-33.261718h-72.757813l-86.777343 33.230468c1.457031-.523437 3.003906-.875 4.578125-1.082031 14.601562-1.867187 28.1875 10.542969 30.3125 27.746094 1.75 14.046875-4.664063 26.925781-15.066406 32.179687zm0 0" fill="#b5722f" data-original="#b5722f"></path><path d="m255.070312 360.046875c22.472657-65.796875 3.292969-118.800781-35.972656-149.40625-18.421875-14.367187-45.675781-14.160156-31.742187 13.785156 12.738281 25.496094 6.53125 61.035157-.175781 80.222657-5.976563 17.113281-24.25 25.902343-38.300782 3.648437-4.488281-7.15625-9.617187-25.027344-20.230468-27.65625-15.15625-3.734375-23.667969 40.273437-11.019532 75.082031l74.359375 51.105469zm0 0" fill="#fcc368" data-original="#fcc368"></path><path d="m336.335938 328.945312c19.675781-43.542968 22.417968-117.308593 1.34375-156.148437-4.34375-8.003906-14.839844-14.894531-18.863282-2.890625-3.351562 9.957031-5.128906 18.339844-7.023437 22.339844-.613281 1.226562-1.253907 2.421875-1.953125 3.503906 15.683594 40.5625 11.894531 105.800781-6.148438 145.691406zm0 0" fill="#f74311" data-original="#f74311"></path><path d="m191.988281 450.722656-15.070312-12.121094-24.804688-3.125-99.601562 38.285157c.261719 1.167969.464843 2.367187.609375 3.59375 1.75 14.046875-4.664063 26.925781-15.066406 32.179687zm0 0" fill="#91561a" data-original="#91561a"></path><path d="m365.777344 450.664062-86.777344-33.203124-87.011719-33.261719-151.398437-57.941407c-37.3125-14.28125-56.929688 44.855469-23.347656 57.675782l87.765624 33.527344 86.980469 33.261718 153.9375 58.8125c-10.375-5.253906-16.816406-18.132812-15.039062-32.179687 2.128906-17.203125 15.710937-29.613281 30.285156-27.746094 1.601563.207031 3.117187.558594 4.605469 1.054687zm0 0" fill="#b5722f" data-original="#b5722f"></path><path d="m383.703125 484.070312c1.925781-15.300781-5.886719-29.230468-17.925781-33.378906v-.027344c-1.488282-.496093-3.003906-.847656-4.605469-1.050781-14.574219-1.871093-28.160156 10.542969-30.285156 27.742188-1.78125 14.046875 4.660156 26.925781 15.039062 32.183593l4.460938 1.691407c.960937.265625 1.980469.46875 3.03125.585937 14.574219 1.867188 28.15625-10.546875 30.285156-27.746094zm0 0" fill="#fcc368" data-original="#fcc368"></path><path d="m331.613281 473.238281-328.742187-129.691406c-6.121094 14.835937-2.9453128 33.757813 14.371094 40.386719l87.765624 33.527344c80.308594 30.691406 160.613282 61.382812 240.917969 92.074218-10.375-5.253906-16.816406-18.132812-15.039062-32.179687.175781-1.402344.40625-2.773438.726562-4.117188zm0 0" fill="#91561a" data-original="#91561a"></path><path d="m366.769531 383.933594c33.578125-12.820313 13.929688-71.957032-23.378906-57.675782l-151.402344 57.9375 20.230469 42.347657 66.78125-9.082031zm0 0" fill="#b5722f" data-original="#b5722f"></path><path d="m366.769531 383.933594c16.03125-6.132813 19.9375-22.808594 15.5625-37l-143.5 55.164062 40.167969 15.363282zm0 0" fill="#91561a" data-original="#91561a"></path></g></g></svg>