<svg xmlns="http://www.w3.org/2000/svg" version="1.1" xmlns:xlink="http://www.w3.org/1999/xlink" xmlns:svgjs="http://svgjs.com/svgjs" width="512" height="512" x="0" y="0" viewBox="0 0 53 53" style="enable-background:new 0 0 512 512" xml:space="preserve" class=""><g><g id="_x32_35"><g><g><path d="m27.5895863 44.5400009c-.9755859-2.6826172-.7509766-11.8696289-.71875-13.0161152l-1.3339844-2.9716797c-.1025391-.2270508-.0009766-.4931641.2255859-.5952148.2255859-.1025391.4941406-.0004883.5947266.2260742 1.4130096 3.1829166 1.4223652 3.0774288 1.4169922 3.2641602-.0039063.1010742-.2988281 10.1445332.6611328 12.7851582.0849609.2333984-.0351563.4916992-.2695313.5766602-.2339821.0854911-.4916839-.0367013-.5761718-.2690431z" fill="#5b5e8b" data-original="#5b5e8b"></path></g><g><path d="m17.5182972 42.5785751c-.1972656-.1518555-.2333984-.434082-.0820313-.6313477 1.7585278-2.2873917 4.4551773-12.0170994 4.5869141-12.1660175l2.2382813-2.5073242c.1640625-.1850586.4501953-.2011719.6357422-.0361328.1855469.1655273.2011719.4501953.0361328.6357422l-2.1699219 2.4301758c-.3154297 1.1025391-2.8730469 9.9287128-4.6142578 12.1923847-.1499424.1965904-.4316063.2343292-.6308594.0825195z" fill="#5b5e8b" data-original="#5b5e8b"></path></g><g><path d="m22.2546253 39.7079697c-.2363281-.0766602-.3662109-.3305664-.2890625-.5668945l2.75-8.4809589-1.7636719-2.7011719c-.1357422-.2080078-.0771484-.4873047.1308594-.6230469.2080078-.1337891.4863281-.078125.6230469.1308594 1.848999 2.9386368 2.0497189 2.9022694 1.9316406 3.2661133l-2.8164063 8.6855488c-.0743694.2301863-.3225402.3673781-.5664062.2895507z" fill="#5b5e8b" data-original="#5b5e8b"></path></g><g><path d="m16.3054066 37.357872c-.2363281-.0786133-.3642578-.3334961-.2851563-.5693359 3.0185184-8.9190731 2.7572803-8.6724758 3.0791016-8.8276386l3.0976563-1.5004883c.2245998-.1074219.4921875-.0151367.6015625.2084961.1083984.2236328.0146484.4931641-.2089844.6010742l-2.9267578 1.4179688-2.7890625 8.3847675c-.0786553.237194-.3350564.3629226-.5683594.2851562z" fill="#5b5e8b" data-original="#5b5e8b"></path></g><g><path d="m24.8058014 24.045702s-2.4698982-3.2884579 6.5551472-11.4648724c3.837019-3.476222 6.1800747-4.6066389 7.6059322-4.7575574 1.3134651-.1390214 2.3271828 1.0494571 2.0069275 2.3325276-1.2702294 5.0890294-10.796341 13.8666592-16.1680069 13.8899022z" fill="#c6c6f7" data-original="#c6c6f7"></path></g><g><path d="m30.9195557 25.4230385c-.13521 2.1183739-2.5803299 3.6846313-5.4649143 3.5043049-1.2395115-.0788822-2.3550243-.4619541-3.2226067-1.0479069-3.0089245-2.0555897-1.9889584-5.5846882 1.6901875-6.4452171.6310005-.1577663 1.3070488-.2253704 2.0169315-.1803246 2.8845844.1916046 5.1156101 2.0507698 4.980402 4.1691437z" fill="#5b5e8b" data-original="#5b5e8b"></path></g><g><path d="m30.9308338 25.2878284c0 .0450478-.0112782.0901623-.0112782.13521-.13521 2.1183739-2.5803299 3.6846313-5.4649143 3.5043049-1.2395115-.0788822-2.3550243-.4619541-3.2226067-1.0479069-1.3037395-.8906689-2.0890045-2.2660503-1.6225834-3.8198414h.0112782c.3943501-1.262001 1.6676311-2.2423038 3.3014927-2.6253757 0 .0112801.0112095.0224895.0112095.0337696 1.1493492.7549992 1.7803516 1.735302 1.7803516 2.7832108 0 1.2844906-.9577465 2.4112816-2.5014458 3.2000504.7098846.3380241 1.5211411.5409069 2.4000721.5972328 2.5352822.1577663 4.7324697-1.0366306 5.3184243-2.7606545z" fill="#312e4b" data-original="#312e4b"></path></g><g><path d="m45.0366478 45.1052322c-6.2642555.9011383-16.5221806-6.0444527-17.1910973-16.439621l.0000019-.0000038c1.7530632-3.2612305 5.9293194-4.3884335 9.0314999-2.3672085 2.0878105 1.3603115 3.5297966 3.3977509 4.5608902 5.6890392 1.601532 4.1063461 1.3169212 8.3620682 1.542263 9.7733841.2317124 1.4970933.8305741 2.6834451 2.0564423 3.34441z" fill="#e83d62" data-original="#e83d62"></path></g><g><path d="m45.0382881 45.1081276c-6.4518623.9215012-16.5392818-6.2450142-17.1948528-16.4399242.3831387-.7098827.867651-1.3070469 1.4422569-1.8028393.7202816 8.0505295 7.6485195 14.4629021 13.8708744 15.7074814.3041878 1.1155128.8901406 1.9943733 1.8817215 2.5352821z" fill="#ce2955" data-original="#ce2955"></path></g><g><path d="m40.968998 31.0157299c-4.1239204 6.6154118-10.151741 6.2030201-10.151741 6.2030201-.8418865-1.2428665-1.5480556-2.6043816-2.0677528-4.0845108 6.8978424-1.0959778 8.9993896-4.5872765 9.5135689-5.7510433.9660185.8926086 1.8924521 2.0733394 2.7059249 3.632534z" fill="#ce2955" data-original="#ce2955"></path></g><g><path d="m42.9802055 41.7608223c-1.220211 1.1750755-2.4800072 1.9320679-3.6211891 2.4235611-1.8247337-.7400665-3.6777382-1.8755569-5.3555832-3.3613396 5.598465-1.1298752 7.711319-3.8924179 8.4174919-5.2256584.5487976 3.0441094.3459893 4.8276024.5592804 6.1634369z" fill="#ce2955" data-original="#ce2955"></path></g><g><path d="m28.1533966 25.5139999c-.7591763-.3640251-1.0489063-1.2698994-.6077156-1.9869862.9370079-1.5229588 3.7550659-3.9323463 12.222599-5.0327568 5.5161934-.7168636 8.2639122-.212534 9.6025581.5988312 1.2598648.7636166 1.3820038 2.5304909.2974243 3.5275173-3.9473342 3.6286813-16.0577697 5.5100632-21.5148658 2.8933945z" fill="#deddff" data-original="#deddff"></path></g><g><path d="m49.6693878 22.6173382c-3.9437714 3.6282368-16.0567856 5.5100269-21.5104866 2.8958626-.7662106-.3605824-1.0591183-1.2732792-.6084423-1.9831638.0788841-.13521.1803246-.2816982.3042545-.4281864.0901642.0676041.1915359.1352081.3041878.191534 6.2817879 3.011097 20.0763474-.0768642 21.9499512-3.447979.5070686.867651.3605804 2.0394897-.4394646 2.7719326z" fill="#c6c6f7" data-original="#c6c6f7"></path></g><g><path d="m25.0434914 24.2534637c0 2.02248-3.2087975 3.6607742-7.1633472 3.6607742-2.6325512 0-4.9375343-.728756-6.1803656-1.8134232 0 0-.0056543-.0056534-.016964-.0113087-.2372293-.1807842-2.8020601-2.2484341-.9660187-4.1635742 0 0 .3388786-.310709.7682352-.2372646 0 0 1.5988131-4.6437893 6.6606159-3.9884796 3.6100178.4689064 4.8245735 2.8642292 5.2200012 4.203125 1.0508424.6327592 1.6778432 1.4518891 1.6778432 2.3501511z" fill="#5b5e8b" data-original="#5b5e8b"></path></g><g><path d="m21.1953373 18.8313332c-.450676-.1690464-.9577465-.2816963-1.521143-.3605804-5.0592833-.6535587-6.6593084 3.9888172-6.6593084 3.9888172-.4281864-.0676041-.7662792.2366524-.7662792.2366524-1.8366756 1.9155598.7324429 3.9888172.9690933 4.1691418.0112104 0 .0112104.0112114.0112104.0112114.1352777.1127205.2704878.2253723.4281864.3268127-.7886992-.2929764-1.453537-.6761169-1.9606066-1.1043034 0 0 0 0-.0112791-.0112095-.2365828-.1803246-2.8057003-2.2423725-.9690247-4.1578636 0 0 .3380241-.3155346.7662106-.2366524 0 0 1.6000938-4.6536541 6.6593781-3.9888172 1.3070469.1689777 2.2986298.5858841 3.0535622 1.126791z" fill="#312e4b" data-original="#312e4b"></path></g><g><path d="m19.5615425 23.2145023c-.1352768.6873951-.5746746 1.1831856-.991581 1.1043015-.4169083-.0788822-.6422806-.7098846-.5070705-1.3972111.13521-.6986046.5859547-1.1943951.9915829-1.1155815.4169063.0788841.6422786.7098846.5070686 1.4084911z" fill="#ffffff" data-original="#ffffff"></path></g><g><path d="m14.738842 22.2680359c-.13521.6986046-.5859537 1.1943951-.9915829 1.1155128-.4169073-.0788841-.6422796-.7098846-.5070696-1.3972111.1352091-.6986065.5746746-1.194397.9915819-1.1155128.4169074.0788822.6422797.7098847.5070706 1.3972111z" fill="#ffffff" data-original="#ffffff"></path></g><g><g><path d="m15.927 23.709-10.094 9.924" fill="#5b5e8b" data-original="#5b5e8b"></path></g><g><path d="m16.4529591 24.2435207-10.6199952 9.3896199 9.5683594-10.4592304c.2799683-.3060608.7550659-.3272095 1.0610962-.0472107.3060608.2799683.327179.7550354.0472107 1.0610962-.0178833.0195617-.0372925.0384826-.0566711.055725z" fill="#312e4b" data-original="#312e4b"></path></g></g></g><g><g><path d="m9.4719048 40.889595c0 1.8999443-1.5388823 3.4388275-3.438827 3.4388275s-3.4388273-1.5388832-3.4388273-3.4388275c0-1.4271164 1.951525-5.1668434 2.9144189-6.9249306.2278085-.4126701.8210082-.4126701 1.0488167 0 .9628939 1.7580872 2.9144187 5.4978142 2.9144187 6.9249306z" fill="#e83d62" data-original="#e83d62"></path></g><g><path d="m6.9357595 44.2080765c-.2879944.0773735-.5888972.1203461-.9026818.1203461-1.8999448 0-3.4388273-1.5388832-3.4388273-3.4388275 0-1.4271164 1.951525-5.1668434 2.9144189-6.9249306.2278085-.4126701.8210082-.4126701 1.0488167 0 .1117663.2063217.2407432.4427338.3739967.6963615-1.0144739 1.9085503-2.5361457 4.9691048-2.5361457 6.228569.0000001 1.5904656 1.0746337 2.9273033 2.5404225 3.3184815z" fill="#ce2955" data-original="#ce2955"></path></g></g></g></g></svg>