<svg xmlns="http://www.w3.org/2000/svg" version="1.1" xmlns:xlink="http://www.w3.org/1999/xlink" xmlns:svgjs="http://svgjs.com/svgjs" width="512" height="512" x="0" y="0" viewBox="0 0 64 64" style="enable-background:new 0 0 512 512" xml:space="preserve" class=""><g><g id="Layer_32" data-name="Layer 32"><circle cx="12" cy="14" fill="#bc6c25" r="10" data-original="#bc6c25" class=""></circle><circle cx="12" cy="14" fill="#f2b9a1" r="5" data-original="#f2b9a1"></circle><path d="m12 9a5.008 5.008 0 0 0 -1.149.145 4.972 4.972 0 0 0 4.3 8.71 4.981 4.981 0 0 0 -3.151-8.855z" fill="#d08d78" data-original="#d08d78"></path><circle cx="52" cy="14" fill="#db8449" r="10" data-original="#db8449" class=""></circle><circle cx="52" cy="14" fill="#f2b9a1" r="5" data-original="#f2b9a1"></circle><path d="m52 9a5.008 5.008 0 0 0 -1.149.145 4.972 4.972 0 0 0 4.3 8.71 4.981 4.981 0 0 0 -3.151-8.855z" fill="#d08d78" data-original="#d08d78"></path><path d="m59 43c0 8.27-7.6 14.99-16.98 15h-.02a26 26 0 0 1 -20 0h-.02c-9.38-.01-16.98-6.73-16.98-15a13.267 13.267 0 0 1 1.23-5.59 25.471 25.471 0 0 1 -.23-3.41 26 26 0 0 1 52 0 25.471 25.471 0 0 1 -.23 3.41 13.267 13.267 0 0 1 1.23 5.59z" fill="#bc6c25" data-original="#bc6c25" class=""></path><path d="m57.77 37.41a25.471 25.471 0 0 0 .23-3.41 26 26 0 0 0 -38.872-22.587 25.951 25.951 0 0 0 -10.128 20.587 25.471 25.471 0 0 0 .23 3.41 13.267 13.267 0 0 0 -1.23 5.59c0 8.27 7.6 14.99 16.98 15h.02a26 26 0 0 0 20 0h.02a18.612 18.612 0 0 0 8.653-2.118 14.185 14.185 0 0 0 5.327-10.882 13.267 13.267 0 0 0 -1.23-5.59z" fill="#db8449" data-original="#db8449" class=""></path><path d="m28 49v3a4 4 0 0 0 4 4 4 4 0 0 0 4-4v-3" fill="#ff959d" data-original="#ff959d"></path><path d="m33 49h-2v6.859a3.617 3.617 0 0 0 2 0z" fill="#f9bbc3" data-original="#f9bbc3"></path><path d="m37 32a10 10 0 1 1 -5 18.66 10 10 0 1 1 -5-18.66" fill="#dda15e" data-original="#dda15e"></path><path d="m37 32h-10a9.935 9.935 0 0 0 -5.991 2.009 9.993 9.993 0 0 0 12.991 14.651 9.964 9.964 0 0 0 10.991-.669 9.984 9.984 0 0 0 -7.991-15.991z" fill="#e2ae7a" data-original="#e2ae7a" class=""></path><g fill="#4c4c4c"><path d="m31 34h2v11h-2z" fill="#4c4c4c" data-original="#4c4c4c" class=""></path><ellipse cx="32" cy="32" rx="5" ry="3" fill="#4c4c4c" data-original="#4c4c4c" class=""></ellipse><path d="m21 25h6v2h-6z" fill="#4c4c4c" data-original="#4c4c4c" class=""></path><path d="m37 25h6v2h-6z" fill="#4c4c4c" data-original="#4c4c4c" class=""></path></g></g></g></svg>