<svg xmlns="http://www.w3.org/2000/svg" version="1.1" xmlns:xlink="http://www.w3.org/1999/xlink" xmlns:svgjs="http://svgjs.com/svgjs" width="512" height="512" x="0" y="0" viewBox="0 0 512.001 512.001" style="enable-background:new 0 0 512 512" xml:space="preserve" class="">
    <g>
        <path style="" d="M473.367,112.386c-103.324-6.712-175.625-69.823-204.012-99.259c-7.303-7.573-19.407-7.573-26.711,0
        c-28.387,29.434-100.688,92.546-204.012,99.259c-10.179,0.661-18.006,9.275-17.462,19.461
        c3.437,64.302,29.855,276.027,226.838,370.883c5.042,2.428,10.938,2.428,15.98,0c196.984-94.856,223.403-306.581,226.84-370.883
        C491.373,121.662,483.546,113.048,473.367,112.386z" fill="#263238" data-original="#263238"></path>
        <path style="" d="M256,259.485l-43.371,42.46v102.861L256,462.042c3.249,0,6.497-0.813,9.436-2.438
        c66.974-37.046,117.385-93.741,150.008-168.789c4.597-10.574,8.638-21.053,12.2-31.329H256z" fill="#36474f" data-original="#36474f"></path>
        <path style="" d="M170.178,215.829l-85.822,43.656c3.563,10.277,7.604,20.755,12.2,31.329
        c32.623,75.048,83.035,131.743,150.008,168.789c2.939,1.625,6.187,2.438,9.436,2.438V259.485L170.178,215.829z" fill="#ffcd56" data-original="#ffcd56"></path>
        <path style="" d="M256,59.375c-4.467,0-8.934,1.546-12.549,4.639c-14.975,12.813-33.59,26.79-55.628,39.739
        c-35.189,20.678-71.976,34.61-109.767,41.611c-10.156,1.881-17.102,11.336-15.704,21.57c3.514,25.733,10.022,57.989,22.003,92.55
        H256l51.118-43.656v-83.724L256,59.375z" fill="#36474f" data-original="#36474f"></path>
        <path style="" d="M427.644,259.485c11.98-34.561,18.489-66.817,22.003-92.55c1.397-10.234-5.547-19.69-15.704-21.57
        c-37.791-6.999-74.577-20.931-109.767-41.611c-22.038-12.95-40.652-26.927-55.628-39.739c-3.615-3.093-8.082-4.639-12.549-4.639
        v200.11h171.645V259.485z" fill="#ffcd56" data-original="#ffcd56"></path>
        <g style="opacity:0.1;">
            <path d="M102.548,100.611c-19.693,6.036-41.041,10.29-63.915,11.775c-10.179,0.661-18.006,9.275-17.462,19.461
            C24.6,196,50.91,406.886,246.645,502.062C126.445,369.677,105.957,172.811,102.548,100.611z" fill="#000000" data-original="#000000"></path>
        </g>
        <path d="M108.486,90.763c-22.995,7.813-46.661,12.553-70.34,14.091c-14.246,0.925-25.221,13.194-24.465,27.348
        c1.848,34.585,9.691,103.513,41.451,176.575c39.893,91.773,103.692,159.287,189.623,200.668c7.079,3.41,15.408,3.41,22.49,0
        c85.932-41.38,149.731-108.895,189.624-200.667c31.759-73.061,39.602-141.989,41.45-176.575
        c0.757-14.154-10.218-26.421-24.465-27.348c-101.652-6.604-173.099-70.02-199.098-96.98c-10.132-10.506-27.392-10.493-37.51,0
        C220.98,24.741,186.455,56.4,137.989,78.921c-8.663,4.026-2.628,17.765,6.318,13.608c50.674-23.548,86.746-56.621,103.737-74.24
        c2.105-2.183,4.931-3.386,7.956-3.386c3.025,0,5.85,1.202,7.956,3.386c15.274,15.836,40.771,39,75.504,59.409
        c42.478,24.962,87.368,39.135,133.422,42.127c6.086,0.395,10.776,5.587,10.457,11.574c-1.794,33.576-9.406,100.49-40.228,171.393
        c-38.418,88.378-99.777,153.357-182.374,193.131c-2.965,1.428-6.504,1.428-9.47,0C168.67,456.15,107.311,391.171,68.893,302.793
        C38.072,231.89,30.459,164.975,28.665,131.399c-0.32-5.987,4.371-11.18,10.456-11.575c24.991-1.624,49.953-6.622,74.192-14.857
        C122.056,101.998,118.012,87.527,108.486,90.763z" fill="#000000" data-original="#000000"></path>
        <path d="M54.92,167.903c4.413,32.322,11.931,63.946,22.348,93.992c3.77,10.873,7.944,21.593,12.409,31.864
        c33.262,76.52,84.826,134.511,153.257,172.363c3.992,2.208,8.51,3.376,13.069,3.376c4.555,0,9.074-1.167,13.066-3.376
        c68.431-37.852,119.994-95.843,153.257-172.363c4.464-10.269,8.639-20.989,12.409-31.865c10.415-30.046,17.934-61.669,22.347-93.991
        c1.936-14.181-7.627-27.342-21.771-29.962c-36.888-6.832-72.999-20.526-107.332-40.701c-19.074-11.208-37.427-24.32-54.55-38.972
        c-9.924-8.492-24.928-8.49-34.851,0c-17.126,14.653-35.479,27.765-54.551,38.972c-34.332,20.175-70.445,33.869-107.332,40.701
        C62.547,140.561,52.984,153.722,54.92,167.903z M103.435,287.778c-2.942-6.768-5.742-13.751-8.39-20.837h153.453v185.108
        C183.873,415.816,135.072,360.557,103.435,287.778z M408.564,287.778c-31.635,72.776-80.441,128.022-145.063,164.254V266.939h153.47
        C414.322,274.031,411.508,281.006,408.564,287.778z M320.375,110.175c35.841,21.062,73.592,35.367,112.201,42.519
        c6.255,1.158,10.488,6.947,9.637,13.18c-4.033,29.538-10.739,58.463-19.944,86.063H263.501V69.525
        c0.057,0.047,0.114,0.095,0.17,0.143C281.465,84.892,300.542,98.521,320.375,110.175z M191.625,110.175
        c19.831-11.652,38.909-25.281,56.704-40.507c0.055-0.047,0.114-0.087,0.17-0.132v182.402H89.727
        c-9.206-27.602-15.909-56.525-19.942-86.064c-0.851-6.231,3.383-12.021,9.637-13.18
        C118.032,145.542,155.782,131.237,191.625,110.175z" fill="#000000" data-original="#000000"></path>
        <g></g>
        <g></g>
        <g></g>
        <g></g>
        <g></g>
        <g></g>
        <g></g>
        <g></g>
        <g></g>
        <g></g>
        <g></g>
        <g></g>
        <g></g>
        <g></g>
        <g></g>
    </g>
</svg>