<svg xmlns="http://www.w3.org/2000/svg" version="1.1" xmlns:xlink="http://www.w3.org/1999/xlink" xmlns:svgjs="http://svgjs.com/svgjs" width="512" height="512" x="0" y="0" viewBox="0 0 512 512" style="enable-background:new 0 0 512 512" xml:space="preserve" class=""><g>
<rect x="36.913" y="97.93" style="" width="438.17" height="375.04" fill="#e9eaeb" data-original="#e9eaeb" class=""></rect>
<rect x="419.46" y="97.93" style="" width="55.63" height="375.04" fill="#b9bbc1" data-original="#b9bbc1"></rect>
<path style="" d="M476.616,97.927H35.384V36.361c0-4.919,3.987-8.906,8.906-8.906h423.42
	c4.919,0,8.906,3.987,8.906,8.906V97.927z" fill="#fdc74f" data-original="#fdc74f"></path>
<path style="" d="M467.71,27.455h-46.724v46.347h55.63V36.361C476.616,31.443,472.629,27.455,467.71,27.455z" fill="#fca629" data-original="#fca629"></path>
<path style="" d="M36.913,209.569L36.913,209.569c-20.166,0-36.515-16.348-36.515-36.514v-29.748h73.029v29.748
	C73.428,193.221,57.079,209.569,36.913,209.569z" fill="#e60d28" data-original="#e60d28"></path>
<path style="" d="M109.942,209.569L109.942,209.569c-20.166,0-36.515-16.348-36.515-36.514v-29.748h73.029v29.748
	C146.457,193.221,130.108,209.569,109.942,209.569z" fill="#f2f2f2" data-original="#f2f2f2"></path>
<path style="" d="M182.971,209.569L182.971,209.569c-20.166,0-36.515-16.348-36.515-36.514v-29.748h73.029v29.748
	C219.486,193.221,203.137,209.569,182.971,209.569z" fill="#e60d28" data-original="#e60d28"></path>
<path style="" d="M256,209.569L256,209.569c-20.166,0-36.515-16.348-36.515-36.514v-29.748h73.029v29.748
	C292.514,193.221,276.166,209.569,256,209.569z" fill="#f2f2f2" data-original="#f2f2f2"></path>
<path style="" d="M329.029,209.569L329.029,209.569c-20.166,0-36.515-16.348-36.515-36.514v-29.748h73.029v29.748
	C365.544,193.221,349.195,209.569,329.029,209.569z" fill="#e60d28" data-original="#e60d28"></path>
<path style="" d="M402.058,209.569L402.058,209.569c-20.166,0-36.515-16.348-36.515-36.514v-29.748h73.029v29.748
	C438.573,193.221,422.224,209.569,402.058,209.569z" fill="#f2f2f2" data-original="#f2f2f2"></path>
<path style="" d="M475.087,209.569L475.087,209.569c-20.166,0-36.515-16.348-36.515-36.514v-29.748h73.029v29.748
	C511.602,193.221,495.253,209.569,475.087,209.569z" fill="#e60d28" data-original="#e60d28"></path>
<polygon style="" points="73.427,143.306 0.398,143.306 35.347,73.802 98.391,73.802 " fill="#fc502a" data-original="#fc502a"></polygon>
<polygon style="" points="146.456,143.306 73.427,143.306 98.391,73.802 161.434,73.802 " fill="#ffffff" data-original="#ffffff"></polygon>
<polygon style="" points="219.485,143.306 146.456,143.306 161.434,73.802 224.478,73.802 " fill="#fc502a" data-original="#fc502a"></polygon>
<polygon style="" points="292.514,143.306 219.485,143.306 224.478,73.802 287.522,73.802 " fill="#ffffff" data-original="#ffffff"></polygon>
<polygon style="" points="365.543,143.306 292.514,143.306 287.522,73.802 350.566,73.802 " fill="#fc502a" data-original="#fc502a"></polygon>
<polygon style="" points="438.572,143.306 365.543,143.306 350.566,73.802 413.609,73.802 " fill="#ffffff" data-original="#ffffff"></polygon>
<polygon style="" points="511.601,143.306 438.572,143.306 413.609,73.802 476.653,73.802 " fill="#fc502a" data-original="#fc502a"></polygon>
<path style="" d="M495.323,438.702H16.677C7.467,438.702,0,446.168,0,455.379v24.439c0,2.611,2.117,4.727,4.727,4.727
	h502.545c2.611,0,4.727-2.117,4.727-4.727v-24.439C512,446.168,504.533,438.702,495.323,438.702z" fill="#8b8996" data-original="#8b8996"></path>
<path style="" d="M495.323,438.702h-39.124v45.843h51.074c2.611,0,4.727-2.116,4.727-4.727v-24.439
	C512,446.168,504.533,438.702,495.323,438.702z" fill="#706f7f" data-original="#706f7f"></path>
<path style="" d="M431.928,389.687H207.015c-3.67,0-6.645-2.975-6.645-6.645V259.281c0-3.67,2.975-6.645,6.645-6.645
	h224.913c3.67,0,6.645,2.975,6.645,6.645v123.762C438.573,386.712,435.598,389.687,431.928,389.687z" fill="#00c6c8" data-original="#00c6c8" class=""></path>
<path style="" d="M431.928,252.636h-49.157v137.051h49.157c3.67,0,6.645-2.975,6.645-6.645V259.281
	C438.573,255.611,435.598,252.636,431.928,252.636z" fill="#0fb0c0" data-original="#0fb0c0" class=""></path>
<path style="" d="M168.781,438.702H66.165V259.281c0-3.67,2.975-6.645,6.645-6.645h89.326
	c3.67,0,6.645,2.975,6.645,6.645L168.781,438.702L168.781,438.702z" fill="#00c6c8" data-original="#00c6c8" class=""></path>
<path style="" d="M162.136,252.636h-49.157v186.066h55.801V259.281C168.781,255.611,165.806,252.636,162.136,252.636z" fill="#0fb0c0" data-original="#0fb0c0" class=""></path>
<path style="" d="M140.105,357.735c4.267,0,7.726-3.459,7.726-7.726v-13.907c0-4.267-3.459-7.726-7.726-7.726
	s-7.726,3.459-7.726,7.726v13.907C132.378,354.276,135.838,357.735,140.105,357.735z" fill="#ffffff" data-original="#ffffff"></path>
<g>
</g>
<g>
</g>
<g>
</g>
<g>
</g>
<g>
</g>
<g>
</g>
<g>
</g>
<g>
</g>
<g>
</g>
<g>
</g>
<g>
</g>
<g>
</g>
<g>
</g>
<g>
</g>
<g>
</g>
</g></svg>