<svg xmlns="http://www.w3.org/2000/svg" version="1.1" xmlns:xlink="http://www.w3.org/1999/xlink" xmlns:svgjs="http://svgjs.com/svgjs" width="512" height="512" x="0" y="0" viewBox="0 0 32 32" style="enable-background:new 0 0 512 512" xml:space="preserve" class=""><g><g id="hospital_logo_2"><g><path d="m30.6245117 18.6699219-4.6235352-2.6689453 4.6240235-2.6699219c.4785156-.2763672.6420898-.8876953.3662109-1.3662109l-4.0004883-6.9287109c-.2773438-.4794922-.8881836-.6425781-1.3662109-.3662109l-4.6245117 2.6699218v-5.3398438c0-.5527344-.4477539-1-1-1h-8c-.5522461 0-1 .4472656-1 1v5.3398438l-4.6245117-2.6699219c-.2294922-.131836-.5029297-.1669922-.7587891-.0996094-.2563476.0683594-.4746094.2363281-.6074219.4658203l-4 6.9287109c-.2758789.4785156-.1123047 1.0898438.3662109 1.3662109l4.6240234 2.6699219-4.6235352 2.6689453c-.2294922.1328125-.3974609.3515625-.4658203.6074219-.0688477.2558594-.0327148.5292969.0996094.7587891l4 6.9287109c.2758789.4785156.8867188.640625 1.3662109.3662109l4.6240236-2.6699218v5.3388672c0 .5527344.4477539 1 1 1h8c.5522461 0 1-.4472656 1-1v-5.3388672l4.6245117 2.6699219c.2299805.1318359.5039063.1689453.7587891.0996094.2563477-.0683594.4746094-.2363281.6074219-.4658203l4-6.9287109c.1323242-.2294922.168457-.5029297.0996094-.7587891-.0683594-.2558594-.2363282-.4746094-.4658204-.6074219z" fill="#359bef" data-original="#ef5350" class=""></path><path d="m31.0898438 19.2802734c.0703125.25.0302734.5292969-.0996094.7597656l-4 6.9199219c-.1303711.2304688-.3500977.4003906-.6103516.4697266-.25.0703125-.5297852.0302734-.7597656-.0996094l-4.6201172-2.6699218v5.3398437c0 .5498047-.4501953 1-1 1h-4v-30h4c.5498047 0 1 .4501953 1 1v5.3398438l4.6201172-2.6699219c.4799805-.2802734 1.0898438-.1103516 1.3701172.3701172l4 6.9199219c.2797852.4804688.1098633 1.0898438-.3701172 1.3701172l-4.6201172 2.6699218 4.6201172 2.6699219c.2299805.1298828.3999023.3496094.4697266.6103515z" fill="#338fdb" data-original="#db4d4d" class=""></path></g></g></g></svg>