<svg xmlns="http://www.w3.org/2000/svg" version="1.1" xmlns:xlink="http://www.w3.org/1999/xlink" xmlns:svgjs="http://svgjs.com/svgjs" width="512" height="512" x="0" y="0" viewBox="0 0 512 512" style="enable-background:new 0 0 512 512" xml:space="preserve" class="">
    <g>
        <path d="m496.484 211.911h-56.113v32.065h56.113c4.427 0 8.016-3.589 8.016-8.016v-16.032c0-4.428-3.589-8.017-8.016-8.017z" fill="#6f6571" data-original="#6f6571"></path>
        <path d="m440.371 211.911h40.081v32.065h-40.081z" fill="#5d5360" data-original="#5d5360"></path>
        <path d="m231.952 163.815h32.065v48.097h-32.065z" fill="#5d5360" data-original="#5d5360"></path>
        <path d="m227.944 268.024-60.185 108.333c-2.968 5.343.895 11.909 7.007 11.909h57.104c5.822 0 11.187-3.157 14.015-8.247l62.219-111.995z" fill="#6f6571" data-original="#6f6571"></path>
        <path d="m294.744 292.073 13.361-24.049h-80.161l-13.361 24.049z" fill="#5d5360" data-original="#5d5360"></path>
        <path d="m143.774 268.024-33.464 60.236c-2.968 5.343.895 11.909 7.007 11.909h12.307c8.733 0 16.78-4.735 21.022-12.37l33.209-59.776-16.032-8.016z" fill="#6f6571" data-original="#6f6571"></path>
        <path d="m143.774 268.024-13.361 24.049h40.081l13.361-24.049-16.032-8.016z" fill="#5d5360" data-original="#5d5360"></path>
        <path d="m304.097 203.895h-280.565c-8.854 0-16.032 7.178-16.032 16.032v64.129c0 8.854 7.178 16.032 16.032 16.032h34.815c8.504 0 16.66-3.378 22.673-9.391l30.689-30.689h192.387v-56.113z" fill="#6f6571" data-original="#6f6571"></path>
        <path d="m127.742 203.895h168.339v32.065h-168.339z" fill="#5d5360" data-original="#5d5360"></path>
        <path d="m440.371 195.879h-128.258c-8.854 0-16.032 7.178-16.032 16.032v8.016c0 8.854-7.178 16.032-16.032 16.032h-160.323c-8.854 0-16.032 7.178-16.032 16.032v16.032h336.677c8.854 0 16.032-7.178 16.032-16.032v-40.081c0-8.853-7.178-16.031-16.032-16.031z" fill="#b3e59f" data-original="#b3e59f"></path>
        <path d="m440.371 268.024h-336.677v-16.032c0-8.854 7.178-16.595 16.032-16.595h336.677v16.595c0 8.854-7.178 16.032-16.032 16.032z" fill="#95d6a4" data-original="#95d6a4"></path>
        <path d="m23.532 300.089h16.032v-96.194h-16.032c-8.854 0-16.032 7.178-16.032 16.032v64.129c0 8.855 7.178 16.033 16.032 16.033z" fill="#857e87" data-original="#857e87"></path>
        <path d="m151.79 131.75h112.226v32.065h-112.226z" fill="#6f6571" data-original="#6f6571"></path>
        <path d="m264.016 131.75h80.161v32.065h-80.161z" fill="#857e87" data-original="#857e87"></path>
        <path d="m496.484 204.411h-33.813c-3.139-9.308-11.946-16.032-22.3-16.032h-128.258c-7.035 0-13.354 3.107-17.67 8.016h-22.927v-25.081h72.661c4.142 0 7.5-3.358 7.5-7.5v-40.081c0-4.142-3.358-7.5-7.5-7.5s-7.5 3.358-7.5 7.5v.516h-177.386v-.516c0-4.142-3.358-7.5-7.5-7.5s-7.5 3.358-7.5 7.5v40.081c0 4.142 3.358 7.5 7.5 7.5h72.661v25.081h-200.92c-12.975 0-23.532 10.557-23.532 23.532v64.129c0 12.976 10.557 23.532 23.532 23.532h34.815c10.568 0 20.503-4.115 27.976-11.588l20.476-20.476h24.228l-27.274 49.093c-2.698 4.857-2.627 10.615.191 15.404 2.817 4.789 7.816 7.647 13.373 7.647h12.307c11.451 0 22.018-6.218 27.578-16.227l13.252-23.854h26.929l-36.181 65.126c-2.698 4.857-2.627 10.616.191 15.404 2.817 4.788 7.816 7.647 13.373 7.647h57.104c8.541 0 16.423-4.638 20.571-12.104l60.076-108.138h127.853c12.976 0 23.532-10.557 23.532-23.533v-.516h32.581c8.556 0 15.516-6.96 15.516-15.516v-16.032c.001-8.553-6.959-15.514-15.515-15.514zm-224.968-65.161h65.161v17.064h-65.161zm-112.225 17.064v-17.064h97.226v17.064zm97.225 15v25.081h-17.064v-25.081zm-224.452 121.275h-8.532c-4.705 0-8.532-3.828-8.532-8.532v-64.129c0-4.705 3.828-8.532 8.532-8.532h8.532zm112.026 31.569c-2.917 5.25-8.459 8.512-14.466 8.512h-12.307c-.11 0-.295 0-.445-.254-.149-.254-.06-.416-.006-.512l31.322-56.378h22.921zm34.698-31.569 9.48-17.064h26.929l-9.48 17.064zm60.541 83.788c-1.504 2.707-4.362 4.389-7.458 4.389h-57.104c-.11 0-.295 0-.445-.254s-.06-.416-.006-.513l58.041-104.475h22.922l-42.797 77.035c-2.012 3.621-.707 8.187 2.914 10.199 1.154.641 2.403.945 3.636.945 2.635 0 5.192-1.392 6.563-3.859l46.845-84.32h22.921zm209.574-124.385c0 4.705-3.828 8.533-8.532 8.533h-329.178v-8.533c0-4.705 3.828-8.532 8.532-8.532h8.019c4.142 0 7.5-3.358 7.5-7.5s-3.358-7.5-7.5-7.5h-8.019c-12.976 0-23.532 10.557-23.532 23.532v12.926l-20.476 20.476c-4.64 4.64-10.809 7.195-17.37 7.195h-11.283v-81.194h241.516v8.532c0 4.705-3.828 8.532-8.532 8.532h-120.242c-4.142 0-7.5 3.358-7.5 7.5s3.358 7.5 7.5 7.5h120.242c12.976 0 23.532-10.557 23.532-23.532v-8.016c0-4.705 3.828-8.532 8.532-8.532h128.258c4.705 0 8.532 3.828 8.532 8.532v40.081zm48.097-16.033c0 .285-.231.516-.516.516h-32.581v-17.064h32.581c.285 0 .516.231.516.516z" fill="#000000" data-original="#000000"></path>
        <path d="m424.339 220.443h-16.032c-4.142 0-7.5 3.358-7.5 7.5s3.358 7.5 7.5 7.5h16.032c4.142 0 7.5-3.358 7.5-7.5s-3.358-7.5-7.5-7.5z" fill="#000000" data-original="#000000"></path>
        <path d="m376.242 220.443h-16.032c-4.142 0-7.5 3.358-7.5 7.5s3.358 7.5 7.5 7.5h16.032c4.142 0 7.5-3.358 7.5-7.5s-3.358-7.5-7.5-7.5z" fill="#000000" data-original="#000000"></path>
    </g>
</svg>