<svg xmlns="http://www.w3.org/2000/svg" version="1.1" xmlns:xlink="http://www.w3.org/1999/xlink" xmlns:svgjs="http://svgjs.com/svgjs" width="512" height="512" x="0" y="0" viewBox="0 0 1706.66 1706.66" style="enable-background:new 0 0 512 512" xml:space="preserve" class="">
    <g>
        <g id="Layer_x0020_1">
            <path d="m1580.82 1706.66h-1454.99c-11.11 0-20-9.03-20-20 0-329.03 267.64-601.39 596.53-607.22 26.42-.57 27.06 39.46.83 39.86-300.56 5.28-546.39 248.89-556.94 547.22h1414.15c-10.56-298.33-256.39-541.94-556.94-547.22-26.13-.39-25.85-40.24.83-40 328.89 5.83 596.53 278.19 596.53 607.22-.01 11.25-9.04 20.14-20.01 20.14z" fill="#000000" data-original="#000000"></path>
            <path d="m853.32 1413.05c-211.24 0-404.72-70.69-504.72-184.3-17.37-19.89 12.72-46.17 30-26.39 198.12 226.91 751.13 226.98 949.16 0 17.3-19.82 47.43 6.59 30 26.39-99.72 113.61-293.2 184.3-504.44 184.3z" fill="#000000" data-original="#000000"></path>
            <path d="m853.32 963.74c-177.36 0-321.66-144.3-321.66-321.66v-230.28c0-177.36 144.3-321.67 321.66-321.67s321.8 144.3 321.8 321.67v230.28c-.14 177.36-144.44 321.67-321.8 321.67zm0-833.74c-155.27 0-281.66 126.39-281.66 281.67v230.28c0 155.28 126.39 281.66 281.66 281.66 155.28 0 281.67-126.39 281.67-281.66v-230.14c0-155.41-126.39-281.8-281.67-281.8z" fill="#000000" data-original="#000000"></path>
            <path d="m1208.32 670.28h-53.33c-26.33 0-26.33-40 0-40h53.33c18.33 0 33.33-15 33.33-33.33v-140c0-18.33-15-33.33-33.33-33.33h-53.33c-26.33 0-26.33-40 0-40h53.33c40.42 0 73.33 32.92 73.33 73.33v140.14c.14 40.28-32.78 73.19-73.33 73.19z" fill="#000000" data-original="#000000"></path>
            <path d="m551.66 670.28h-53.33c-40.42 0-73.33-32.92-73.33-73.33v-140c0-40.42 32.92-73.33 73.33-73.33h53.33c26.36 0 26.36 40 0 40h-53.33c-18.33 0-33.33 15-33.33 33.33v140.14c0 18.33 15 33.33 33.33 33.33h53.33c26.33 0 26.38 39.86 0 39.86z" fill="#000000" data-original="#000000"></path>
            <path d="m1213.46 423.47c-24.11 0-20-27.37-20-43.33 0-187.5-152.64-340.14-340.14-340.14s-340.13 152.64-340.13 340.14c0 16.14 4.11 43.33-20 43.33s-20-27.2-20-43.33c0-209.58 170.56-380.14 380.13-380.14 209.58 0 380.14 170.56 380.14 380.14 0 16.14 4.11 43.33-20 43.33z" fill="#000000" data-original="#000000"></path>
            <path d="m800.27 469.86c-203.19 0-250.14-151.25-250.69-152.78-8.03-24.15 30.57-37.38 38.33-11.39 1.39 4.72 33.33 103.33 168.19 121.39-47.08-62.46-14.94-84.63 4.44-75.14 22.08 10.83 47.92 21.25 70 28.19-74.67-94.22-31.74-126-9.03-107.22 1.53 1.25 152.5 128.61 328.74 95.69 25.86-4.87 33.26 34.4 7.36 39.31-127.22 23.75-239.44-25.28-304.17-64.03 28.61 39.93 52.37 48.78 47.92 67.36-7.91 32.97-79.67 9.02-107.91-1.67 17.79 21.81 35.37 30.33 28.75 47.5-3.92 10.17-12.27 12.77-21.94 12.77z" fill="#000000" data-original="#000000"></path>
            <path d="m853.32 1237.91c-105.13 0-170.55-53.06-170.55-138.47v-196.25c0-26.33 40-26.33 40 0v196.25c0 88.89 91.25 98.47 130.55 98.47 39.31 0 130.56-9.58 130.56-98.47v-196.25c0-26.3 40-26.3 40 0v196.25c0 85.42-65.42 138.47-170.56 138.47z" fill="#000000" data-original="#000000"></path>
            <path d="m423.19 1706.66c-11.11 0-20-9.03-20-20v-216.25c0-26.33 40-26.33 40 0v216.25c0 11.11-9.03 20-20 20z" fill="#000000" data-original="#000000"></path>
            <path d="m1283.46 1706.66c-10.97 0-20-9.03-20-20v-216.25c0-26.3 40-26.3 40 0v216.25c0 11.11-8.89 20-20 20z" fill="#000000" data-original="#000000"></path>
            <path d="m757.49 597.08c-30.28 0-65.83 6.69-65.83-20s35.56-20 65.83-20c26.43 0 26.27 40 0 40z" fill="#000000" data-original="#000000"></path>
            <path d="m994.99 597.08c-30.02 0-65.83 6.69-65.83-20s35.81-20 65.83-20c26.33 0 26.33 40 0 40z" fill="#000000" data-original="#000000"></path>
            <path d="m853.32 836.52c-47.01 0-118.13-51.04-87.77-75.97 27.08-22.24 36.73 35.83 87.91 35.83 51.37 0 60.4-58.13 87.78-35.83 30.62 24.94-41.13 75.97-87.91 75.97z" fill="#000000" data-original="#000000"></path>
            <path d="m865.27 712.78c-16.52 0-44.02 4.23-44.02-20s27.51-20 44.02-20c26.27 0 26.43 40 0 40z" fill="#000000" data-original="#000000"></path>
            <path d="m929.16 577.08c0-26.69 35.81-20 65.83-20 26.33 0 26.33 40 0 40-30.02 0-65.83 6.69-65.83-20zm-63.89 95.69c26.27 0 26.43 40 0 40-16.52 0-44.02 4.23-44.02-20s27.51-20 44.02-20zm-293.61-261.11v230.28c0 103.64 56.3 194.41 139.92 243.31 1.3.57 2.54 1.28 3.69 2.12 40.82 23.06 87.93 36.22 138.05 36.22 50.17 0 97.33-13.19 138.18-36.3 1.07-.77 2.21-1.42 3.41-1.96 83.7-48.89 140.08-139.7 140.08-243.41v-230.14c0-.13 0-.26 0-.39-117.82 14.43-220.67-31.09-281.52-67.52 28.61 39.93 52.37 48.78 47.92 67.36-7.91 32.97-79.67 9.02-107.91-1.67 17.79 21.81 35.37 30.33 28.75 47.5-3.92 10.17-12.27 12.77-21.94 12.77-127.23 0-193.2-59.3-224.88-104.02-2.45 14.92-3.73 30.22-3.73 45.82zm193.89 348.89c27.08-22.24 36.73 35.83 87.91 35.83 51.37 0 60.4-58.13 87.78-35.83 30.62 24.94-41.13 75.97-87.91 75.97-47.01 0-118.13-51.04-87.77-75.97zm-8.06-203.47c26.43 0 26.27 40 0 40-30.28 0-65.83 6.69-65.83-20s35.56-20 65.83-20z" fill="#f8b9a0" data-original="#f8b9a0"></path>
            <path d="m821.52 272.92c1.48 1.2 142.25 119.97 310.59 98.54-19.62-136.36-137.2-241.46-278.79-241.46-120.05 0-222.83 75.55-263.29 181.59 8.94 22.37 48.19 99.71 166.07 115.49-47.08-62.46-14.94-84.63 4.44-75.14 22.08 10.83 47.92 21.25 70 28.19-74.67-94.22-31.74-126-9.03-107.22z" fill="#474747" data-original="#474747"></path>
            <path d="m1175.13 423.61v206.67h33.2c18.33 0 33.33-15 33.33-33.33v-140c0-18.33-15-33.33-33.33-33.33h-33.19z" fill="#d62966" data-original="#d62966"></path>
            <path d="m531.66 630.41v-206.8h-33.33c-18.33 0-33.33 15-33.33 33.33v140.14c0 18.33 15 33.33 33.33 33.33z" fill="#d62966" data-original="#d62966"></path>
            <path d="m853.32 963.74c-46.45 0-90.63-9.9-130.55-27.7v163.39c0 88.89 91.25 98.47 130.55 98.47 39.31 0 130.56-9.58 130.56-98.47v-163.39c-39.92 17.8-84.1 27.7-130.56 27.7z" fill="#fa9682" data-original="#fa9682"></path>
            <path d="m1022.55 1119.96c-9.77 73.31-72.79 117.95-169.23 117.95s-159.46-44.64-169.22-117.95c-107.09 5.51-206.62 41.26-290.23 98.74 204.61 205.17 714.35 205.19 918.76-.11-83.58-57.42-183.06-93.13-290.07-98.63z" fill="#d62966" data-original="#d62966"></path>
            <path d="m1345 1242.54c-102.89 105.51-289.11 170.51-491.67 170.51-202.49 0-388.65-64.95-491.8-170.4-126.21 100.48-209.23 253.22-215.27 423.87h256.94v-196.11c0-26.33 40-26.33 40 0v196.11h820.27v-196.11c0-26.3 40-26.3 40 0v196.11h256.94c-6.04-170.71-89.12-323.51-215.41-423.98z" fill="#62d8b6" data-original="#62d8b6"></path>
        </g>
    </g>
</svg>